<svg xmlns="http://www.w3.org/2000/svg" xmlns:xlink="http://www.w3.org/1999/xlink" viewBox="0 0 590.32 529.79"><defs><style>.cls-1{fill:none;}.cls-2{isolation:isolate;}.cls-3{fill:url(#New_Gradient_Swatch_copy_26);}.cls-4{fill:url(#New_Gradient_Swatch_copy_26-2);}.cls-5{fill:url(#New_Gradient_Swatch_copy_26-3);}.cls-6{fill:url(#New_Gradient_Swatch_copy_26-4);}.cls-7{fill:url(#New_Gradient_Swatch_copy_26-5);}.cls-8{fill:url(#New_Gradient_Swatch_copy_26-6);}.cls-9{fill:url(#New_Gradient_Swatch_copy_26-7);}.cls-10{fill:url(#New_Gradient_Swatch_copy_26-8);}.cls-11{fill:url(#New_Gradient_Swatch_copy_26-9);}.cls-12{fill:url(#New_Gradient_Swatch_copy_26-10);}.cls-13{fill:url(#New_Gradient_Swatch_copy_26-11);}.cls-14{fill:url(#New_Gradient_Swatch_copy_26-12);}.cls-15{fill:url(#New_Gradient_Swatch_copy_26-13);}.cls-16{fill:url(#New_Gradient_Swatch_copy_26-14);}.cls-17{fill:url(#New_Gradient_Swatch_copy_26-15);}.cls-18{fill:url(#New_Gradient_Swatch_copy_26-16);}.cls-19{fill:url(#New_Gradient_Swatch_copy_26-17);}.cls-20{fill:url(#New_Gradient_Swatch_copy_26-18);}.cls-21{fill:url(#New_Gradient_Swatch_copy_26-19);}.cls-22{fill:url(#New_Gradient_Swatch_copy_26-20);}.cls-23{fill:url(#New_Gradient_Swatch_copy_26-21);}.cls-24{fill:url(#New_Gradient_Swatch_copy_26-22);}.cls-25{fill:url(#New_Gradient_Swatch_copy_26-23);}.cls-26{fill:url(#New_Gradient_Swatch_copy_26-24);}.cls-27{fill:url(#New_Gradient_Swatch_copy_26-25);}.cls-28{fill:url(#New_Gradient_Swatch_copy_26-26);}.cls-29{fill:url(#New_Gradient_Swatch_copy_26-27);}.cls-30{fill:url(#New_Gradient_Swatch_copy_26-28);}.cls-31{fill:url(#New_Gradient_Swatch_copy_26-29);}.cls-32{fill:url(#New_Gradient_Swatch_copy_26-30);}.cls-33{fill:url(#New_Gradient_Swatch_copy_26-31);}.cls-34{fill:#2af6ff;}.cls-35,.cls-53{opacity:0.2;}.cls-36{opacity:0;}.cls-37{opacity:0.09;}.cls-38{opacity:0.18;}.cls-39{opacity:0.27;}.cls-40{opacity:0.36;}.cls-41{opacity:0.45;}.cls-42{opacity:0.55;}.cls-43{opacity:0.64;}.cls-44{opacity:0.73;}.cls-45{opacity:0.82;}.cls-46{opacity:0.91;}.cls-47{fill:url(#linear-gradient);}.cls-48{fill:url(#linear-gradient-2);}.cls-49{fill:url(#linear-gradient-3);}.cls-50{fill:#fff;}.cls-51{opacity:0.8;fill:url(#linear-gradient-4);}.cls-52{fill:url(#linear-gradient-5);}.cls-53{fill:url(#linear-gradient-6);}.cls-54{opacity:0.27;fill:url(#linear-gradient-7);}.cls-55{opacity:0.35;fill:url(#linear-gradient-8);}.cls-56{opacity:0.42;fill:url(#linear-gradient-9);}.cls-57{opacity:0.49;fill:url(#linear-gradient-10);}.cls-58{opacity:0.56;fill:url(#linear-gradient-11);}.cls-59{opacity:0.64;fill:url(#linear-gradient-12);}.cls-60{opacity:0.71;fill:url(#linear-gradient-13);}.cls-61{opacity:0.78;fill:url(#linear-gradient-14);}.cls-62{opacity:0.85;fill:url(#linear-gradient-15);}.cls-63{opacity:0.93;fill:url(#linear-gradient-16);}.cls-64{fill:url(#linear-gradient-17);}.cls-104,.cls-121,.cls-123,.cls-124,.cls-125,.cls-126,.cls-65{mix-blend-mode:color-dodge;}.cls-65{fill:url(#New_Gradient_Swatch_copy);}.cls-66{fill:url(#linear-gradient-18);}.cls-67{opacity:0.3;fill:url(#linear-gradient-19);}.cls-111,.cls-113,.cls-117,.cls-122,.cls-67{mix-blend-mode:screen;}.cls-68{fill:url(#linear-gradient-20);}.cls-69{fill:url(#linear-gradient-21);}.cls-70{fill:url(#linear-gradient-22);}.cls-71{fill:url(#linear-gradient-23);}.cls-72{fill:url(#linear-gradient-24);}.cls-73{fill:url(#linear-gradient-25);}.cls-74{fill:url(#linear-gradient-26);}.cls-75{fill:url(#linear-gradient-27);}.cls-76{fill:url(#linear-gradient-28);}.cls-77{fill:url(#linear-gradient-29);}.cls-78{fill:url(#linear-gradient-30);}.cls-79{fill:url(#linear-gradient-31);}.cls-80{fill:url(#linear-gradient-32);}.cls-81{fill:url(#linear-gradient-33);}.cls-82{fill:url(#linear-gradient-34);}.cls-83{fill:url(#linear-gradient-35);}.cls-84{fill:url(#linear-gradient-36);}.cls-85{fill:url(#linear-gradient-37);}.cls-86{fill:url(#linear-gradient-38);}.cls-87{fill:url(#linear-gradient-39);}.cls-88{fill:url(#New_Gradient_Swatch_copy_26-32);}.cls-89{fill:url(#linear-gradient-40);}.cls-90{fill:url(#linear-gradient-41);}.cls-91{fill:url(#linear-gradient-42);}.cls-92{fill:url(#linear-gradient-43);}.cls-93{fill:url(#linear-gradient-44);}.cls-94,.cls-99{opacity:0.7;}.cls-94{fill:url(#linear-gradient-45);}.cls-95{fill:url(#linear-gradient-46);}.cls-96{fill:url(#linear-gradient-47);}.cls-97{fill:url(#linear-gradient-48);}.cls-98{fill:url(#linear-gradient-49);}.cls-99{fill:url(#linear-gradient-50);}.cls-100{fill:url(#linear-gradient-51);}.cls-101{fill:url(#linear-gradient-52);}.cls-102{fill:url(#radial-gradient);}.cls-103{fill:url(#linear-gradient-53);}.cls-104{fill:url(#radial-gradient-2);}.cls-105{fill:url(#linear-gradient-54);}.cls-106{fill:url(#linear-gradient-55);}.cls-107{clip-path:url(#clip-path);}.cls-108{fill:url(#linear-gradient-56);}.cls-109{fill:url(#linear-gradient-57);}.cls-110{fill:url(#linear-gradient-58);}.cls-112{fill:url(#linear-gradient-59);}.cls-113{fill:#ff63ce;}.cls-114{fill:url(#linear-gradient-60);}.cls-115{fill:url(#linear-gradient-61);}.cls-116{fill:url(#linear-gradient-62);}.cls-117,.cls-122{opacity:0.5;}.cls-117{fill:url(#radial-gradient-3);}.cls-118{mix-blend-mode:multiply;fill:url(#radial-gradient-4);}.cls-119{fill:url(#linear-gradient-63);}.cls-120{fill:url(#linear-gradient-64);}.cls-121{fill:url(#Radial_Gradient_1);}.cls-122{fill:url(#White_Black_Radial);}.cls-123{fill:url(#radial-gradient-5);}.cls-124{fill:url(#radial-gradient-6);}.cls-125{fill:url(#radial-gradient-7);}.cls-126{fill:url(#radial-gradient-8);}</style><linearGradient id="New_Gradient_Swatch_copy_26" x1="530.51" y1="494.75" x2="456.36" y2="427.49" gradientUnits="userSpaceOnUse"><stop offset="0.03" stop-color="#7c1dc9"/><stop offset="0.21" stop-color="#6e41d2"/><stop offset="0.62" stop-color="#4c9be8"/><stop offset="1" stop-color="#2af6ff"/></linearGradient><linearGradient id="New_Gradient_Swatch_copy_26-2" x1="546.72" y1="476.88" x2="472.58" y2="409.61" xlink:href="#New_Gradient_Swatch_copy_26"/><linearGradient id="New_Gradient_Swatch_copy_26-3" x1="565.39" y1="456.3" x2="491.24" y2="389.04" xlink:href="#New_Gradient_Swatch_copy_26"/><linearGradient id="New_Gradient_Swatch_copy_26-4" x1="393.72" y1="538.87" x2="361.61" y2="463.96" xlink:href="#New_Gradient_Swatch_copy_26"/><linearGradient id="New_Gradient_Swatch_copy_26-5" x1="359.19" y1="545.82" x2="330.23" y2="478.25" xlink:href="#New_Gradient_Swatch_copy_26"/><linearGradient id="New_Gradient_Swatch_copy_26-6" x1="580.18" y1="312.49" x2="483.87" y2="366" xlink:href="#New_Gradient_Swatch_copy_26"/><linearGradient id="New_Gradient_Swatch_copy_26-7" x1="414.41" y1="530.01" x2="382.3" y2="455.09" xlink:href="#New_Gradient_Swatch_copy_26"/><linearGradient id="New_Gradient_Swatch_copy_26-8" x1="435.46" y1="520.99" x2="403.35" y2="446.07" xlink:href="#New_Gradient_Swatch_copy_26"/><linearGradient id="New_Gradient_Swatch_copy_26-9" x1="574.55" y1="446.21" x2="500.4" y2="378.94" xlink:href="#New_Gradient_Swatch_copy_26"/><linearGradient id="New_Gradient_Swatch_copy_26-10" x1="492.18" y1="522.8" x2="450.38" y2="425.26" xlink:href="#New_Gradient_Swatch_copy_26"/><linearGradient id="New_Gradient_Swatch_copy_26-11" x1="447.34" y1="515.89" x2="415.24" y2="440.98" xlink:href="#New_Gradient_Swatch_copy_26"/><linearGradient id="New_Gradient_Swatch_copy_26-12" x1="565.4" y1="285.88" x2="469.08" y2="339.39" xlink:href="#New_Gradient_Swatch_copy_26"/><linearGradient id="New_Gradient_Swatch_copy_26-13" x1="592.83" y1="335.25" x2="496.51" y2="388.76" xlink:href="#New_Gradient_Swatch_copy_26"/><linearGradient id="New_Gradient_Swatch_copy_26-14" x1="145.93" y1="223.78" x2="213.53" y2="223.78" xlink:href="#New_Gradient_Swatch_copy_26"/><linearGradient id="New_Gradient_Swatch_copy_26-15" x1="66.87" y1="255.2" x2="161.69" y2="255.2" xlink:href="#New_Gradient_Swatch_copy_26"/><linearGradient id="New_Gradient_Swatch_copy_26-16" x1="76.93" y1="231" x2="196.84" y2="231" xlink:href="#New_Gradient_Swatch_copy_26"/><linearGradient id="New_Gradient_Swatch_copy_26-17" x1="25.31" y1="288.64" x2="120.2" y2="288.64" xlink:href="#New_Gradient_Swatch_copy_26"/><linearGradient id="New_Gradient_Swatch_copy_26-18" x1="12.05" y1="259.16" x2="150.41" y2="259.16" xlink:href="#New_Gradient_Swatch_copy_26"/><linearGradient id="New_Gradient_Swatch_copy_26-19" x1="28.72" y1="306.87" x2="98.65" y2="306.87" xlink:href="#New_Gradient_Swatch_copy_26"/><linearGradient id="New_Gradient_Swatch_copy_26-20" x1="163.17" y1="455.51" x2="230.12" y2="455.51" xlink:href="#New_Gradient_Swatch_copy_26"/><linearGradient id="New_Gradient_Swatch_copy_26-21" x1="163.74" y1="473.5" x2="253.75" y2="473.5" xlink:href="#New_Gradient_Swatch_copy_26"/><linearGradient id="New_Gradient_Swatch_copy_26-22" x1="73.73" y1="391.11" x2="129.22" y2="391.11" xlink:href="#New_Gradient_Swatch_copy_26"/><linearGradient id="New_Gradient_Swatch_copy_26-23" x1="74.3" y1="409.58" x2="150.98" y2="409.58" xlink:href="#New_Gradient_Swatch_copy_26"/><linearGradient id="New_Gradient_Swatch_copy_26-24" x1="64" y1="459.04" x2="221.37" y2="459.04" xlink:href="#New_Gradient_Swatch_copy_26"/><linearGradient id="New_Gradient_Swatch_copy_26-25" x1="68.08" y1="435.79" x2="202.02" y2="435.79" xlink:href="#New_Gradient_Swatch_copy_26"/><linearGradient id="New_Gradient_Swatch_copy_26-26" x1="225.25" y1="475.22" x2="275.44" y2="475.22" xlink:href="#New_Gradient_Swatch_copy_26"/><linearGradient id="New_Gradient_Swatch_copy_26-27" x1="124.73" y1="409.45" x2="168.19" y2="409.45" xlink:href="#New_Gradient_Swatch_copy_26"/><linearGradient id="New_Gradient_Swatch_copy_26-28" x1="0" y1="351.94" x2="85.71" y2="351.94" xlink:href="#New_Gradient_Swatch_copy_26"/><linearGradient id="New_Gradient_Swatch_copy_26-29" x1="10.76" y1="374.23" x2="114.8" y2="374.23" xlink:href="#New_Gradient_Swatch_copy_26"/><linearGradient id="New_Gradient_Swatch_copy_26-30" x1="219.01" y1="496.97" x2="294.68" y2="496.97" xlink:href="#New_Gradient_Swatch_copy_26"/><linearGradient id="New_Gradient_Swatch_copy_26-31" x1="266.99" y1="501.13" x2="314.18" y2="501.13" xlink:href="#New_Gradient_Swatch_copy_26"/><linearGradient id="linear-gradient" x1="86.81" y1="343.83" x2="525.07" y2="343.83" gradientUnits="userSpaceOnUse"><stop offset="0.06" stop-color="#9f79b8"/><stop offset="0.26" stop-color="#a17bba"/><stop offset="0.36" stop-color="#a783bf"/><stop offset="0.43" stop-color="#b290c9"/><stop offset="0.49" stop-color="#c1a1d5"/><stop offset="0.51" stop-color="#c4a5d7"/><stop offset="0.52" stop-color="#cdb3dd"/><stop offset="0.53" stop-color="#dbc8e7"/><stop offset="0.55" stop-color="#efe7f4"/><stop offset="0.56" stop-color="#fff"/><stop offset="0.57" stop-color="#ece0f3"/><stop offset="0.58" stop-color="#ddc8ea"/><stop offset="0.59" stop-color="#d4b9e5"/><stop offset="0.6" stop-color="#d1b4e3"/><stop offset="0.66" stop-color="#b395d6"/><stop offset="0.72" stop-color="#9c7dcb"/><stop offset="0.77" stop-color="#8e6ec5"/><stop offset="0.81" stop-color="#8969c3"/><stop offset="1" stop-color="#b086cc"/></linearGradient><linearGradient id="linear-gradient-2" x1="77.48" y1="332.36" x2="499.11" y2="332.36" gradientUnits="userSpaceOnUse"><stop offset="0" stop-color="#2f054a"/><stop offset="1" stop-color="#5824b0"/></linearGradient><linearGradient id="linear-gradient-3" x1="82.2" y1="332.36" x2="494.4" y2="332.36" gradientUnits="userSpaceOnUse"><stop offset="0" stop-color="#3d065f"/><stop offset="1" stop-color="#5f27bd"/></linearGradient><linearGradient id="linear-gradient-4" x1="410.34" y1="27.71" x2="-3121.7" y2="1913.34" gradientTransform="matrix(0.87, 0.5, 0, 1.15, 3.8, -56.51)" gradientUnits="userSpaceOnUse"><stop offset="0.06" stop-color="#9f79b8"/><stop offset="0.26" stop-color="#a17bba"/><stop offset="0.37" stop-color="#a783bf"/><stop offset="0.45" stop-color="#b290c9"/><stop offset="0.51" stop-color="#c2a2d6"/><stop offset="0.56" stop-color="#d1b4e3"/><stop offset="0.66" stop-color="#b395d6"/><stop offset="0.75" stop-color="#9c7dcb"/><stop offset="0.84" stop-color="#8e6ec5"/><stop offset="0.92" stop-color="#8969c3"/></linearGradient><linearGradient id="linear-gradient-5" x1="406.59" y1="29.33" x2="-3125.45" y2="1914.96" gradientTransform="matrix(0.87, 0.5, 0, 1.15, 3.8, -56.51)" xlink:href="#linear-gradient-3"/><linearGradient id="linear-gradient-6" x1="559.75" y1="128.62" x2="225.42" y2="226.96" gradientUnits="userSpaceOnUse"><stop offset="0" stop-color="#4916a1"/><stop offset="0.52" stop-color="#5f27bd"/><stop offset="1" stop-color="#b4299a"/></linearGradient><linearGradient id="linear-gradient-7" x1="559.32" y1="128.88" x2="226.13" y2="226.87" gradientUnits="userSpaceOnUse"><stop offset="0" stop-color="#46159b"/><stop offset="0.52" stop-color="#5e26bb"/><stop offset="0.69" stop-color="#7a28b2"/><stop offset="1" stop-color="#b4299a"/></linearGradient><linearGradient id="linear-gradient-8" x1="558.89" y1="129.13" x2="226.84" y2="226.79" gradientUnits="userSpaceOnUse"><stop offset="0" stop-color="#431494"/><stop offset="0.52" stop-color="#5d26b9"/><stop offset="0.69" stop-color="#7828b3"/><stop offset="1" stop-color="#b4299a"/></linearGradient><linearGradient id="linear-gradient-9" x1="558.47" y1="129.38" x2="227.55" y2="226.71" gradientUnits="userSpaceOnUse"><stop offset="0" stop-color="#41138e"/><stop offset="0.52" stop-color="#5b25b6"/><stop offset="0.69" stop-color="#7528b4"/><stop offset="1" stop-color="#b4299a"/></linearGradient><linearGradient id="linear-gradient-10" x1="558.04" y1="129.64" x2="228.27" y2="226.63" gradientUnits="userSpaceOnUse"><stop offset="0" stop-color="#3e1288"/><stop offset="0.52" stop-color="#5a24b4"/><stop offset="0.69" stop-color="#7228b5"/><stop offset="1" stop-color="#b4299a"/></linearGradient><linearGradient id="linear-gradient-11" x1="557.61" y1="129.89" x2="228.98" y2="226.55" gradientUnits="userSpaceOnUse"><stop offset="0" stop-color="#3b1182"/><stop offset="0.52" stop-color="#5924b2"/><stop offset="0.69" stop-color="#6f28b6"/><stop offset="1" stop-color="#b4299a"/></linearGradient><linearGradient id="linear-gradient-12" x1="557.18" y1="130.15" x2="229.69" y2="226.47" gradientUnits="userSpaceOnUse"><stop offset="0" stop-color="#38117b"/><stop offset="0.52" stop-color="#5823b0"/><stop offset="0.69" stop-color="#6d27b8"/><stop offset="1" stop-color="#b4299a"/></linearGradient><linearGradient id="linear-gradient-13" x1="556.75" y1="130.4" x2="230.4" y2="226.38" gradientUnits="userSpaceOnUse"><stop offset="0" stop-color="#351075"/><stop offset="0.52" stop-color="#5723ae"/><stop offset="0.69" stop-color="#6a27b9"/><stop offset="1" stop-color="#b4299a"/></linearGradient><linearGradient id="linear-gradient-14" x1="556.32" y1="130.65" x2="231.11" y2="226.3" gradientUnits="userSpaceOnUse"><stop offset="0" stop-color="#320f6f"/><stop offset="0.52" stop-color="#5622ac"/><stop offset="0.69" stop-color="#6727ba"/><stop offset="1" stop-color="#b4299a"/></linearGradient><linearGradient id="linear-gradient-15" x1="555.89" y1="130.91" x2="231.82" y2="226.22" gradientUnits="userSpaceOnUse"><stop offset="0" stop-color="#300e69"/><stop offset="0.52" stop-color="#5421a9"/><stop offset="0.69" stop-color="#6427bb"/><stop offset="1" stop-color="#b4299a"/></linearGradient><linearGradient id="linear-gradient-16" x1="555.47" y1="131.16" x2="232.53" y2="226.14" gradientUnits="userSpaceOnUse"><stop offset="0" stop-color="#2d0d62"/><stop offset="0.52" stop-color="#5321a7"/><stop offset="0.69" stop-color="#6227bc"/><stop offset="1" stop-color="#b4299a"/></linearGradient><linearGradient id="linear-gradient-17" x1="555.04" y1="131.41" x2="233.24" y2="226.06" gradientUnits="userSpaceOnUse"><stop offset="0" stop-color="#2a0c5c"/><stop offset="0.69" stop-color="#5f27bd"/><stop offset="1" stop-color="#b4299a"/></linearGradient><radialGradient id="New_Gradient_Swatch_copy" cx="1205.13" cy="-1862.55" r="58.93" gradientTransform="matrix(1, 0, 0, 0.59, -990.02, 1364.73)" gradientUnits="userSpaceOnUse"><stop offset="0" stop-color="#972a74"/><stop offset="0.04" stop-color="#8a266a"/><stop offset="0.19" stop-color="#601b4a"/><stop offset="0.35" stop-color="#3d112f"/><stop offset="0.51" stop-color="#230a1b"/><stop offset="0.67" stop-color="#0f040c"/><stop offset="0.83" stop-color="#040103"/><stop offset="1"/></radialGradient><linearGradient id="linear-gradient-18" x1="-573.88" y1="457.72" x2="-766.06" y2="312.44" gradientTransform="matrix(0.87, 0.5, -1.5, 0.29, 1470.29, 536.57)" gradientUnits="userSpaceOnUse"><stop offset="0" stop-color="#3d065f"/><stop offset="1" stop-color="#12054e"/><stop offset="1" stop-color="#10054d"/></linearGradient><linearGradient id="linear-gradient-19" x1="256.55" y1="235.47" x2="364.21" y2="404.42" gradientUnits="userSpaceOnUse"><stop offset="0.06" stop-color="#9f79b8"/><stop offset="0.25" stop-color="#a17bba"/><stop offset="0.35" stop-color="#a883c0"/><stop offset="0.42" stop-color="#b490cc"/><stop offset="0.48" stop-color="#c5a3dc"/><stop offset="0.54" stop-color="#dbbbf0"/><stop offset="0.56" stop-color="#e6c6fa"/><stop offset="0.6" stop-color="#d6b6f1"/><stop offset="0.69" stop-color="#b595dd"/><stop offset="0.77" stop-color="#9d7dcf"/><stop offset="0.85" stop-color="#8e6ec6"/><stop offset="0.92" stop-color="#8969c3"/></linearGradient><linearGradient id="linear-gradient-20" x1="298.51" y1="12.89" x2="297.62" y2="211.33" gradientTransform="translate(323.23 -205.35) rotate(73.92)" gradientUnits="userSpaceOnUse"><stop offset="0.01" stop-color="#7c1dc9"/><stop offset="1" stop-color="#4e00d4"/></linearGradient><linearGradient id="linear-gradient-21" x1="322.44" y1="26.57" x2="321.54" y2="225.01" gradientTransform="translate(353.66 -218.45) rotate(73.92)" xlink:href="#linear-gradient-20"/><linearGradient id="linear-gradient-22" x1="346.36" y1="40.24" x2="345.46" y2="238.68" gradientTransform="translate(384.1 -231.55) rotate(73.92)" xlink:href="#linear-gradient-20"/><linearGradient id="linear-gradient-23" x1="370.28" y1="53.91" x2="369.39" y2="252.36" gradientTransform="translate(414.53 -244.65) rotate(73.92)" xlink:href="#linear-gradient-20"/><linearGradient id="linear-gradient-24" x1="394.21" y1="67.59" x2="393.31" y2="266.03" gradientTransform="translate(444.97 -257.75) rotate(73.92)" xlink:href="#linear-gradient-20"/><linearGradient id="linear-gradient-25" x1="418.13" y1="81.26" x2="417.23" y2="279.71" gradientTransform="translate(475.41 -270.85) rotate(73.92)" xlink:href="#linear-gradient-20"/><linearGradient id="linear-gradient-26" x1="442.05" y1="94.94" x2="441.16" y2="293.38" gradientTransform="translate(505.84 -283.95) rotate(73.92)" xlink:href="#linear-gradient-20"/><linearGradient id="linear-gradient-27" x1="465.98" y1="108.61" x2="465.08" y2="307.06" gradientTransform="translate(536.28 -297.05) rotate(73.92)" xlink:href="#linear-gradient-20"/><linearGradient id="linear-gradient-28" x1="489.9" y1="122.29" x2="489" y2="320.73" gradientTransform="translate(566.71 -310.15) rotate(73.92)" xlink:href="#linear-gradient-20"/><linearGradient id="linear-gradient-29" x1="513.82" y1="135.96" x2="512.93" y2="334.4" gradientTransform="translate(597.15 -323.25) rotate(73.92)" xlink:href="#linear-gradient-20"/><linearGradient id="linear-gradient-30" x1="428.66" y1="19.09" x2="428.01" y2="164.62" gradientTransform="matrix(1, 0, 0, 1, 0, 0)" xlink:href="#linear-gradient-20"/><linearGradient id="linear-gradient-31" x1="422.32" y1="40.62" x2="421.67" y2="186.15" gradientTransform="matrix(1, 0, 0, 1, 0, 0)" xlink:href="#linear-gradient-20"/><linearGradient id="linear-gradient-32" x1="415.99" y1="62.15" x2="415.33" y2="207.68" gradientTransform="matrix(1, 0, 0, 1, 0, 0)" xlink:href="#linear-gradient-20"/><linearGradient id="linear-gradient-33" x1="409.65" y1="83.68" x2="408.99" y2="229.21" gradientTransform="matrix(1, 0, 0, 1, 0, 0)" xlink:href="#linear-gradient-20"/><linearGradient id="linear-gradient-34" x1="403.31" y1="105.21" x2="402.65" y2="250.75" gradientTransform="matrix(1, 0, 0, 1, 0, 0)" xlink:href="#linear-gradient-20"/><linearGradient id="linear-gradient-35" x1="396.97" y1="126.74" x2="396.31" y2="272.28" gradientTransform="matrix(1, 0, 0, 1, 0, 0)" xlink:href="#linear-gradient-20"/><linearGradient id="linear-gradient-36" x1="390.63" y1="148.28" x2="389.98" y2="293.81" gradientTransform="translate(384.31 -227.47) rotate(59.71)" xlink:href="#linear-gradient-20"/><linearGradient id="linear-gradient-37" x1="384.29" y1="169.81" x2="383.64" y2="315.34" gradientTransform="translate(399.76 -211.32) rotate(59.71)" xlink:href="#linear-gradient-20"/><linearGradient id="linear-gradient-38" x1="377.96" y1="191.34" x2="377.3" y2="336.87" gradientTransform="translate(415.21 -195.18) rotate(59.71)" xlink:href="#linear-gradient-20"/><linearGradient id="linear-gradient-39" x1="908.52" y1="444.06" x2="907.9" y2="582.3" gradientTransform="matrix(1.15, 0.1, -0.24, 0.85, -523.65, -336.35)" gradientUnits="userSpaceOnUse"><stop offset="0.01" stop-color="#2af6ff"/><stop offset="1" stop-color="#4e00d4"/></linearGradient><linearGradient id="New_Gradient_Swatch_copy_26-32" x1="410.14" y1="159.93" x2="401.23" y2="191.08" xlink:href="#New_Gradient_Swatch_copy_26"/><linearGradient id="linear-gradient-40" x1="915.79" y1="489.61" x2="902.89" y2="665.41" xlink:href="#linear-gradient-39"/><linearGradient id="linear-gradient-41" x1="906.9" y1="583.32" x2="912.99" y2="687.68" xlink:href="#linear-gradient-39"/><linearGradient id="linear-gradient-42" x1="905.45" y1="450.42" x2="1004.84" y2="450.42" gradientTransform="matrix(1.15, 0.1, -0.24, 0.85, -523.65, -336.35)" gradientUnits="userSpaceOnUse"><stop offset="0.01" stop-color="#dc3daa"/><stop offset="1" stop-color="#4e00d4"/></linearGradient><linearGradient id="linear-gradient-43" x1="905.6" y1="460.83" x2="983.23" y2="460.83" xlink:href="#linear-gradient-42"/><linearGradient id="linear-gradient-44" x1="-105.2" y1="2489.19" x2="-5.03" y2="2489.19" gradientTransform="matrix(0.81, 0.48, -0.25, 1.08, 1009.61, -2560.6)" gradientUnits="userSpaceOnUse"><stop offset="0.01" stop-color="#dc3daa"/><stop offset="0.51" stop-color="#6b24d6"/><stop offset="1" stop-color="#43e8e1"/></linearGradient><linearGradient id="linear-gradient-45" x1="-94.7" y1="2503.51" x2="-41.94" y2="2503.51" xlink:href="#linear-gradient-44"/><linearGradient id="linear-gradient-46" x1="541.6" y1="143.41" x2="557.01" y2="216.15" gradientTransform="matrix(1.06, 0.02, -0.22, 0.94, -176.72, -53.02)" xlink:href="#linear-gradient-44"/><linearGradient id="linear-gradient-47" x1="554.14" y1="168.26" x2="514.77" y2="104.08" gradientTransform="matrix(1.06, 0.02, -0.22, 0.94, -176.72, -53.02)" xlink:href="#linear-gradient-44"/><linearGradient id="linear-gradient-48" x1="498.42" y1="116.58" x2="531.79" y2="146.97" gradientTransform="matrix(1.06, 0.02, -0.22, 0.94, -176.72, -53.02)" xlink:href="#linear-gradient-44"/><linearGradient id="linear-gradient-49" x1="551.23" y1="176.67" x2="507.57" y2="124.17" gradientTransform="matrix(1.06, 0.02, -0.22, 0.94, -176.72, -53.02)" xlink:href="#linear-gradient-44"/><linearGradient id="linear-gradient-50" x1="357.42" y1="121.53" x2="339.58" y2="98.09" gradientTransform="matrix(1, 0, 0, 1, 0, 0)" xlink:href="#linear-gradient-44"/><linearGradient id="linear-gradient-51" x1="301.81" y1="116.4" x2="350.73" y2="98.06" gradientTransform="matrix(1, 0, 0, 1, 0, 0)" xlink:href="#linear-gradient-44"/><linearGradient id="linear-gradient-52" x1="495.5" y1="132.62" x2="529.6" y2="151.32" gradientTransform="matrix(1.06, 0.02, -0.22, 0.94, -176.72, -53.02)" xlink:href="#linear-gradient-44"/><radialGradient id="radial-gradient" cx="1419.01" cy="823.44" r="26.14" gradientTransform="translate(-1208.06 395.98) rotate(-28.32)" gradientUnits="userSpaceOnUse"><stop offset="0.1" stop-color="#8493ba"/><stop offset="0.21" stop-color="#606c90"/><stop offset="0.33" stop-color="#444d6e"/><stop offset="0.43" stop-color="#303756"/><stop offset="0.53" stop-color="#232a47"/><stop offset="0.62" stop-color="#1f2542"/><stop offset="0.71" stop-color="#242a49"/><stop offset="0.83" stop-color="#34395b"/><stop offset="0.98" stop-color="#4d5179"/><stop offset="0.98" stop-color="#4d517a"/></radialGradient><linearGradient id="linear-gradient-53" x1="1406.55" y1="754.25" x2="1446.17" y2="754.25" gradientTransform="translate(-1208.06 395.98) rotate(-28.32)" gradientUnits="userSpaceOnUse"><stop offset="0" stop-color="#bec5d8"/><stop offset="0.12" stop-color="#dfe2ec"/><stop offset="0.25" stop-color="#fff"/><stop offset="0.29" stop-color="#e9eaf0"/><stop offset="0.36" stop-color="#bec1d2"/><stop offset="0.43" stop-color="#9ca1ba"/><stop offset="0.5" stop-color="#848baa"/><stop offset="0.56" stop-color="#757d9f"/><stop offset="0.62" stop-color="#70789c"/><stop offset="0.67" stop-color="#767ea3"/><stop offset="0.75" stop-color="#888fb5"/><stop offset="0.84" stop-color="#a5aad4"/><stop offset="0.88" stop-color="#b4b8e3"/><stop offset="0.89" stop-color="#b2b6e1"/><stop offset="0.93" stop-color="#9da1c9"/><stop offset="0.97" stop-color="#9094ba"/><stop offset="1" stop-color="#8b90b5"/></linearGradient><radialGradient id="radial-gradient-2" cx="1446.35" cy="820.53" r="58.39" gradientTransform="translate(-1208.06 395.98) rotate(-28.32)" gradientUnits="userSpaceOnUse"><stop offset="0" stop-color="#364f87"/><stop offset="0.15" stop-color="#263860"/><stop offset="0.31" stop-color="#19243d"/><stop offset="0.48" stop-color="#0e1422"/><stop offset="0.65" stop-color="#06090f"/><stop offset="0.82" stop-color="#020204"/><stop offset="1"/></radialGradient><linearGradient id="linear-gradient-54" x1="328.22" y1="310.12" x2="401.6" y2="315.11" gradientUnits="userSpaceOnUse"><stop offset="0" stop-color="#d6dae6"/><stop offset="0.01" stop-color="#d4d8e6"/><stop offset="0.28" stop-color="#b4b8e3"/><stop offset="0.4" stop-color="#9a9fc8"/><stop offset="0.53" stop-color="#838ab0"/><stop offset="0.65" stop-color="#757da1"/><stop offset="0.76" stop-color="#70789c"/><stop offset="0.85" stop-color="#777ea2"/><stop offset="0.99" stop-color="#898eb3"/><stop offset="1" stop-color="#8b90b5"/></linearGradient><linearGradient id="linear-gradient-55" x1="1414.63" y1="659.71" x2="1438.2" y2="659.71" gradientTransform="translate(-1208.06 395.98) rotate(-28.32)" gradientUnits="userSpaceOnUse"><stop offset="0" stop-color="#3c445c"/><stop offset="0.16" stop-color="#6b789a"/><stop offset="0.25" stop-color="#8493ba"/><stop offset="0.33" stop-color="#606c90"/><stop offset="0.41" stop-color="#444d6e"/><stop offset="0.49" stop-color="#303756"/><stop offset="0.56" stop-color="#232a47"/><stop offset="0.62" stop-color="#1f2542"/><stop offset="0.68" stop-color="#242a49"/><stop offset="0.77" stop-color="#34395b"/><stop offset="0.88" stop-color="#4d5179"/><stop offset="0.88" stop-color="#4d517a"/><stop offset="0.92" stop-color="#44476b"/><stop offset="0.96" stop-color="#3b3e5c"/><stop offset="1" stop-color="#383b57"/></linearGradient><clipPath id="clip-path"><ellipse class="cls-1" cx="286.67" cy="172.98" rx="74.43" ry="128.92" transform="translate(-48.12 168.33) rotate(-30.31)"/></clipPath><linearGradient id="linear-gradient-56" x1="349.64" y1="7.29" x2="348.61" y2="236.85" gradientTransform="matrix(1, 0, 0, 1, 0, 0)" xlink:href="#linear-gradient-39"/><linearGradient id="linear-gradient-57" x1="373.73" y1="88.74" x2="352.25" y2="381.55" gradientTransform="matrix(1, 0, 0, 1, 0, 0)" xlink:href="#linear-gradient-39"/><linearGradient id="linear-gradient-58" x1="369.09" y1="251.32" x2="379.26" y2="425.51" gradientTransform="matrix(1, 0, 0, 1, 0, 0)" xlink:href="#linear-gradient-39"/><linearGradient id="linear-gradient-59" x1="203.36" y1="167.76" x2="285.91" y2="167.76" gradientUnits="userSpaceOnUse"><stop offset="0.09" stop-color="#2af6ff"/><stop offset="1" stop-color="#7c1dc9"/></linearGradient><linearGradient id="linear-gradient-60" x1="198.12" y1="206.35" x2="310.02" y2="206.35" xlink:href="#linear-gradient-59"/><linearGradient id="linear-gradient-61" x1="190.51" y1="253.13" x2="324.17" y2="253.13" xlink:href="#linear-gradient-59"/><linearGradient id="linear-gradient-62" x1="314.78" y1="300.73" x2="192.49" y2="84.09" gradientUnits="userSpaceOnUse"><stop offset="0" stop-color="#bec5d8"/><stop offset="0.12" stop-color="#dfe2ec"/><stop offset="0.25" stop-color="#fff"/><stop offset="0.29" stop-color="#e9eaf0"/><stop offset="0.36" stop-color="#bec1d2"/><stop offset="0.43" stop-color="#9ca1ba"/><stop offset="0.5" stop-color="#848baa"/><stop offset="0.56" stop-color="#757d9f"/><stop offset="0.62" stop-color="#70789c"/><stop offset="0.77" stop-color="#777ea2"/><stop offset="0.98" stop-color="#898eb3"/><stop offset="1" stop-color="#8b90b5"/></linearGradient><radialGradient id="radial-gradient-3" cx="268.57" cy="141.35" r="130.98" gradientTransform="translate(126.49 -121.03) rotate(30.31)" gradientUnits="userSpaceOnUse"><stop offset="0.01" stop-color="#b0fbff"/><stop offset="1" stop-color="#3456d9"/></radialGradient><radialGradient id="radial-gradient-4" cx="268.07" cy="142.35" r="130.98" gradientTransform="translate(126.49 -121.03) rotate(30.31)" gradientUnits="userSpaceOnUse"><stop offset="0.48" stop-color="#fff"/><stop offset="1" stop-color="#7893b3"/></radialGradient><linearGradient id="linear-gradient-63" x1="260.72" y1="37.73" x2="382.77" y2="271.35" gradientTransform="matrix(1, 0, 0, 1, 0, 0)" xlink:href="#linear-gradient-53"/><linearGradient id="linear-gradient-64" x1="350.35" y1="141.34" x2="98.76" y2="270.12" gradientUnits="userSpaceOnUse"><stop offset="0" stop-color="#fff"/><stop offset="0.18" stop-color="#eaebf7"/><stop offset="0.48" stop-color="#cacdeb"/><stop offset="0.58" stop-color="#b7badb"/><stop offset="0.74" stop-color="#9fa3c6"/><stop offset="0.88" stop-color="#9095b9"/><stop offset="1" stop-color="#8b90b5"/></linearGradient><radialGradient id="Radial_Gradient_1" cx="326.38" cy="97.67" r="104.39" gradientUnits="userSpaceOnUse"><stop offset="0" stop-color="#fff"/><stop offset="1"/></radialGradient><radialGradient id="White_Black_Radial" cx="264.18" cy="120.44" r="71.47" xlink:href="#Radial_Gradient_1"/><radialGradient id="radial-gradient-5" cx="264.39" cy="263.7" r="24.09" gradientTransform="matrix(1, 0, 0, 1, 0, 0)" xlink:href="#radial-gradient-2"/><radialGradient id="radial-gradient-6" cx="379.7" cy="237.49" r="24.09" gradientTransform="translate(558.29 -172.21) rotate(81.75)" xlink:href="#radial-gradient-2"/><radialGradient id="radial-gradient-7" cx="319.05" cy="84" r="24.09" gradientTransform="matrix(1, 0, 0, 1, 0, 0)" xlink:href="#radial-gradient-2"/><radialGradient id="radial-gradient-8" cx="268.78" cy="118.62" r="55.03" gradientTransform="translate(160.19 -154.3) rotate(45)" gradientUnits="userSpaceOnUse"><stop offset="0.01" stop-color="#43e8e1"/><stop offset="0.01" stop-color="#42d9d8"/><stop offset="0.03" stop-color="#3eafc0"/><stop offset="0.04" stop-color="#3b8dab"/><stop offset="0.06" stop-color="#39729b"/><stop offset="0.08" stop-color="#375e90"/><stop offset="0.09" stop-color="#365389"/><stop offset="0.11" stop-color="#364f87"/><stop offset="0.25" stop-color="#263860"/><stop offset="0.39" stop-color="#19243d"/><stop offset="0.54" stop-color="#0e1422"/><stop offset="0.69" stop-color="#06090f"/><stop offset="0.84" stop-color="#020204"/><stop offset="1"/></radialGradient></defs><title>Web Form element 1</title><g class="cls-2"><g id="Layer_2" data-name="Layer 2"><g id="Layer_1-2" data-name="Layer 1"><path class="cls-3" d="M525.74,464a6.82,6.82,0,0,0-5.9-.07l-15.77-9a.59.59,0,0,0-.39-.1l-28.65.57-41.39-23.88-.76,1.32,41.57,24a.6.6,0,0,0,.4.1l28.65-.57,15.11,8.65a2.1,2.1,0,0,0-.38,1.19,2.6,2.6,0,0,0,1.49,2.19,6.57,6.57,0,0,0,6,0,2.54,2.54,0,0,0,1.47-2.17A2.63,2.63,0,0,0,525.74,464ZM525,467a5.3,5.3,0,0,1-4.52,0c-.46-.26-.72-.58-.72-.87a.65.65,0,0,1,.18-.42l.06,0,.14-.23a2,2,0,0,1,.32-.23,4.59,4.59,0,0,1,2.25-.53,4.82,4.82,0,0,1,2.27.53c.46.27.72.59.72.88S525.44,466.75,525,467Z"/><path class="cls-4" d="M557.67,449.24a6.81,6.81,0,0,0-6,0,4.17,4.17,0,0,0-.46.33l-8.52-5L490,447.93l-40.7-23.77-.77,1.32,41.1,24,52.65-3.4,8,4.73a2,2,0,0,0-.09.6,2.61,2.61,0,0,0,1.48,2.19,6.57,6.57,0,0,0,6,0,2.59,2.59,0,0,0,1.47-2.18A2.61,2.61,0,0,0,557.67,449.24Zm-.75,3.05a5.3,5.3,0,0,1-4.52,0c-.45-.26-.72-.58-.72-.87a.47.47,0,0,1,0-.16l.19-.32a2,2,0,0,1,.48-.38,4.63,4.63,0,0,1,2.24-.52,4.79,4.79,0,0,1,2.27.53c.46.27.72.58.72.87S557.37,452,556.92,452.29Z"/><path class="cls-5" d="M587.34,434.42a6.76,6.76,0,0,0-6,0,2.91,2.91,0,0,0-1.31,1.42l-31.82-.14L529,421l-34.73,3.32-23.44-13.93-.78,1.32,23.66,14.05.21.13,34.62-3.31,18.89,14.44.2.16,32.35.14a3,3,0,0,0,1.32,1.42,6.57,6.57,0,0,0,6,0,2.35,2.35,0,0,0,0-4.37Zm-.74,3.05a5.33,5.33,0,0,1-4.52,0,1.68,1.68,0,0,1-.65-.61v-.53a1.54,1.54,0,0,1,.62-.59,5.13,5.13,0,0,1,4.52,0c.46.27.72.58.72.87S587,437.21,586.6,437.47Z"/><path class="cls-6" d="M399.9,524.69a6.86,6.86,0,0,0-5.55-.24l-15.82-10.16.5-22a.74.74,0,0,0-.37-.67l-22.81-14-.79,1.3,22.43,13.74-.5,22a.75.75,0,0,0,.35.66l15.65,10a2.24,2.24,0,0,0-.61,1.47,2.62,2.62,0,0,0,1.49,2.19,6.57,6.57,0,0,0,6,0,2.58,2.58,0,0,0,1.47-2.17A2.63,2.63,0,0,0,399.9,524.69Zm-.75,3a5.3,5.3,0,0,1-4.52,0c-.46-.26-.72-.58-.72-.87s.26-.6.71-.86a4.63,4.63,0,0,1,2.24-.52,4.7,4.7,0,0,1,2.27.54c.46.26.72.58.72.87S399.6,527.48,399.15,527.74Z"/><path class="cls-7" d="M358.35,514.49a6.92,6.92,0,0,0-5.59-.22l-25.47-14.61,20.7-12a.77.77,0,0,0,0-1.32l-7.8-4.62-.8,1.31,6.71,3.94-20.74,12a.78.78,0,0,0-.38.66.76.76,0,0,0,.38.66l26,14.93a2.23,2.23,0,0,0-.56,1.41,2.61,2.61,0,0,0,1.48,2.19,6.59,6.59,0,0,0,6.05,0,2.59,2.59,0,0,0,1.47-2.17A2.63,2.63,0,0,0,358.35,514.49Zm-.75,3a5.31,5.31,0,0,1-4.51,0c-.46-.26-.72-.58-.72-.87s.25-.6.7-.85a4.59,4.59,0,0,1,2.25-.53,4.82,4.82,0,0,1,2.27.53c.45.27.72.59.72.88S358.05,517.28,357.6,517.54Z"/><path class="cls-8" d="M588.84,313a6.81,6.81,0,0,0-6.05,0,2.59,2.59,0,0,0-1.47,2.17,2.26,2.26,0,0,0,.7,1.56l-49.29,29-28.64-.57a1.27,1.27,0,0,0-.4.11l-34.78,20.25.77,1.32,34.59-20.14,28.64.57a.81.81,0,0,0,.41-.11l50.11-29.53a6.72,6.72,0,0,0,2.42.44,6.08,6.08,0,0,0,3-.73,2.57,2.57,0,0,0,1.47-2.18A2.64,2.64,0,0,0,588.84,313Zm-.75,3.05a5.3,5.3,0,0,1-4.52,0l-.09-.06-.05-.09,0,0a1,1,0,0,1-.54-.75c0-.28.26-.59.71-.85a5.11,5.11,0,0,1,4.51,0c.46.26.72.58.72.87S588.53,315.79,588.09,316Z"/><path class="cls-9" d="M421,511.05a6.81,6.81,0,0,0-5.71-.15l-23-13-2.55-21.59a.78.78,0,0,0-.39-.57l-16.15-9.15-.76,1.33,15.82,9,2.56,21.58a.74.74,0,0,0,.38.58L414,511.91a2.17,2.17,0,0,0-.51,1.34,2.61,2.61,0,0,0,1.47,2.18,6.12,6.12,0,0,0,3,.73,6.27,6.27,0,0,0,3-.74,2.64,2.64,0,0,0,1.48-2.2A2.59,2.59,0,0,0,421,511.05Zm-.78,3a4.7,4.7,0,0,1-2.27.54,4.52,4.52,0,0,1-2.24-.53c-.45-.25-.71-.57-.71-.85a.84.84,0,0,1,.33-.58l.35.2.37-.64a4.93,4.93,0,0,1,1.94-.38,4.7,4.7,0,0,1,2.25.52c.44.26.7.57.7.85S420.67,513.83,420.21,514.09Z"/><path class="cls-10" d="M461,517.34a6.76,6.76,0,0,0-6,0,3.33,3.33,0,0,0-.47.34l-22.93-13.42-7.08-18.91-41.13-24-.77,1.32,40.66,23.75,7.07,18.9,23.28,13.62a2,2,0,0,0-.1.6A2.6,2.6,0,0,0,455,521.7a6.57,6.57,0,0,0,6,0,2.35,2.35,0,0,0,0-4.37Zm-.74,3a5.33,5.33,0,0,1-4.52,0c-.46-.27-.72-.58-.72-.87a.8.8,0,0,1,0-.15l.19-.33a2.17,2.17,0,0,1,.48-.38,5.13,5.13,0,0,1,4.52,0c.46.27.72.58.72.87S460.72,520.13,460.28,520.39Z"/><path class="cls-11" d="M487,402.9l13.67,7.89,50.39-11.05,7.92,4.69a2,2,0,0,0-.09.6,2.61,2.61,0,0,0,1.48,2.19,6.11,6.11,0,0,0,3,.74,6,6,0,0,0,3-.73,2.54,2.54,0,0,0,1.47-2.17,2.64,2.64,0,0,0-1.48-2.2,6.84,6.84,0,0,0-6,0,3.9,3.9,0,0,0-.46.34l-8.57-5.07L501,409.17l-13.15-7.6Zm76.36.75a4.64,4.64,0,0,1,2.27.54c.46.26.72.58.72.87s-.25.59-.7.85a5.28,5.28,0,0,1-4.51,0c-.46-.26-.72-.58-.72-.87a.5.5,0,0,1,0-.16l.19-.31a1.79,1.79,0,0,1,.48-.38A4.55,4.55,0,0,1,563.39,403.65Z"/><path class="cls-12" d="M528.66,500.24a6.78,6.78,0,0,0-6,0,3.33,3.33,0,0,0-.47.34l-53.21-30.78-18-3.7-38-21.93-.77,1.32,38.09,22,18,3.7,53,30.65a1.92,1.92,0,0,0-.09.59,2.61,2.61,0,0,0,1.48,2.19,6.57,6.57,0,0,0,6,0,2.59,2.59,0,0,0,1.47-2.18A2.61,2.61,0,0,0,528.66,500.24Zm-.75,3.05a5.33,5.33,0,0,1-4.52,0c-.45-.27-.71-.58-.71-.87a.32.32,0,0,1,0-.14l.19-.34a2.17,2.17,0,0,1,.48-.38,5.11,5.11,0,0,1,4.51,0c.46.27.72.58.72.87S528.36,503,527.91,503.29Z"/><path class="cls-13" d="M462.69,496.19a6.81,6.81,0,0,0-6.05,0,3.33,3.33,0,0,0-.47.34l-18.62-10.84-2.16-11L397,452.5l-.77,1.32L434,475.64l2.17,11,19.08,11.11a2,2,0,0,0-.09.6,2.61,2.61,0,0,0,1.48,2.19,6.57,6.57,0,0,0,6,0,2.55,2.55,0,0,0,1.47-2.18A2.61,2.61,0,0,0,462.69,496.19Zm-.75,3.05a5.33,5.33,0,0,1-4.52,0c-.45-.26-.72-.58-.72-.87a.42.42,0,0,1,0-.15l.19-.33a1.79,1.79,0,0,1,.48-.38,5.11,5.11,0,0,1,4.51,0c.46.27.72.58.72.87S462.38,499,461.94,499.24Z"/><path class="cls-14" d="M469,332.09,516.89,319l20.82-11.29a6.63,6.63,0,0,0,2.27.39,6.12,6.12,0,0,0,3-.73,2.35,2.35,0,0,0,0-4.37,6.76,6.76,0,0,0-6,0,2.57,2.57,0,0,0-1.47,2.18,2.31,2.31,0,0,0,.75,1.62L516.4,317.56l-47.87,13.08L438.7,348l.77,1.33Zm68-26.91c0-.28.26-.59.7-.85a4.58,4.58,0,0,1,2.24-.53,4.71,4.71,0,0,1,2.28.54c.45.26.72.58.72.87s-.26.59-.71.85a5.24,5.24,0,0,1-3.41.38l-.44-.81-.72.39C537.23,305.76,537,305.46,537,305.18Z"/><path class="cls-15" d="M515.93,362.5l-25.47,14.66.76,1.33,24.71-14.23,24.92,14.38.39.22,29.47-17.79a6.69,6.69,0,0,0,1.5.17,6.09,6.09,0,0,0,3-.73,2.35,2.35,0,0,0,0-4.37,6.79,6.79,0,0,0-6,0,2.31,2.31,0,0,0-.2,4.22l-27.74,16.74Zm54-3.32c-.46-.26-.72-.58-.72-.87s.26-.6.7-.86a5.08,5.08,0,0,1,4.52,0c.46.26.72.58.72.86s-.26.6-.7.86a5.43,5.43,0,0,1-3.87.26l0-.07-.06,0A4,4,0,0,1,569.94,359.18Z"/><path class="cls-16" d="M195.9,239.72l-9.2-19.39-32.45-18.5a2.23,2.23,0,0,0,.68-1.53,2.59,2.59,0,0,0-1.47-2.18,6.81,6.81,0,0,0-6.05,0,2.64,2.64,0,0,0-1.48,2.2,2.55,2.55,0,0,0,1.47,2.17,6.09,6.09,0,0,0,3,.73,6.68,6.68,0,0,0,2.42-.44l32.69,18.63,9.22,19.42,18.09,9.3.7-1.36Zm-47.74-38.54c-.44-.26-.7-.57-.7-.85s.26-.61.72-.87a4.67,4.67,0,0,1,2.27-.54,4.59,4.59,0,0,1,2.25.53c.44.25.7.56.7.85s-.26.61-.72.87A5.33,5.33,0,0,1,148.16,201.18Z"/><path class="cls-17" d="M97,247.91,75.2,235.78a2.27,2.27,0,0,0,.66-1.53,2.61,2.61,0,0,0-1.46-2.18,6.78,6.78,0,0,0-6.05,0,2.64,2.64,0,0,0-1.48,2.2,2.54,2.54,0,0,0,1.47,2.17,6.08,6.08,0,0,0,3,.73,6.58,6.58,0,0,0,2.44-.45l22.54,12.56,29.18,7.51L160.88,279l.81-1.29-35.48-22.3ZM69.1,235.13c-.45-.26-.7-.57-.7-.85s.26-.61.72-.87a4.64,4.64,0,0,1,2.27-.54,4.55,4.55,0,0,1,2.24.53c.45.25.7.56.7.85s-.26.61-.72.87a4.64,4.64,0,0,1-2.27.54A4.78,4.78,0,0,1,69.1,235.13Z"/><path class="cls-18" d="M130.62,231.86,85.25,205.35a2.33,2.33,0,0,0,.68-1.55,2.57,2.57,0,0,0-1.47-2.18,6.79,6.79,0,0,0-6,0,2.63,2.63,0,0,0-1.49,2.2A2.54,2.54,0,0,0,78.4,206a6.09,6.09,0,0,0,3,.73,6.51,6.51,0,0,0,2.42-.44l46.11,26.94,34.91,9.31,31.2,18.55.79-1.31-31.3-18.61ZM79.17,204.68c-.45-.26-.71-.57-.71-.85s.26-.61.72-.87a4.7,4.7,0,0,1,2.27-.54,4.59,4.59,0,0,1,2.25.53c.44.25.7.57.7.85s-.26.61-.72.87A5.28,5.28,0,0,1,79.17,204.68Z"/><path class="cls-19" d="M84.93,281.4l-37.62,4.9-13.67-7.69a2.25,2.25,0,0,0,.67-1.53,2.59,2.59,0,0,0-1.47-2.17,6.78,6.78,0,0,0-6.05,0,2.64,2.64,0,0,0-1.48,2.2,2.57,2.57,0,0,0,1.47,2.18,6.2,6.2,0,0,0,3,.73,6.57,6.57,0,0,0,2.43-.45l14.56,8.19a.77.77,0,0,0,.47.09L84.87,283l34.56,20.12.77-1.32L85.42,281.5A.77.77,0,0,0,84.93,281.4ZM27.54,278c-.44-.26-.7-.57-.7-.85s.26-.61.72-.87a5,5,0,0,1,4.52,0c.44.26.7.57.7.85a1,1,0,0,1-.54.75l-.05,0-.07.11-.06,0a4.7,4.7,0,0,1-2.27.54A4.59,4.59,0,0,1,27.54,278Z"/><path class="cls-20" d="M65.39,265l-45.18-27.5a2.35,2.35,0,0,0,.83-1.71,2.57,2.57,0,0,0-1.47-2.18,6.79,6.79,0,0,0-6,0,2.61,2.61,0,0,0-1.48,2.19,2.56,2.56,0,0,0,1.46,2.18,6.15,6.15,0,0,0,3,.73,6.63,6.63,0,0,0,2.17-.36l46.08,28.06.17.1,55.22,1.26,29.46,17.74.79-1.31-29.81-18ZM14.28,236.62c-.45-.26-.7-.57-.7-.86s.26-.6.72-.87a4.64,4.64,0,0,1,2.27-.53,4.66,4.66,0,0,1,2.24.52c.45.26.7.57.7.86s-.25.6-.7.86l-.64-.4-.49.8A5.34,5.34,0,0,1,14.28,236.62Z"/><path class="cls-21" d="M47.87,313.29l-11.39-6.58a2.51,2.51,0,0,0,1.24-2,2.57,2.57,0,0,0-1.47-2.18,6.79,6.79,0,0,0-6,0,2.35,2.35,0,0,0,0,4.37,6.09,6.09,0,0,0,3,.73h0a6.81,6.81,0,0,0,1.52-.17l13.15,7.59,25.31-14.59,24.7,14.23.77-1.33L73.18,298.69ZM33.2,306.1a4.7,4.7,0,0,1-2.25-.52c-.44-.26-.7-.57-.7-.86s.26-.6.72-.87a4.82,4.82,0,0,1,2.27-.53,4.7,4.7,0,0,1,2.25.52c.44.26.7.57.7.86s-.26.61-.72.87a3.82,3.82,0,0,1-.54.24l-.09,0-.05.09a5.4,5.4,0,0,1-1.59.24Z"/><path class="cls-22" d="M164.65,482.48a6.27,6.27,0,0,0,3,.73,6,6,0,0,0,3-.73,2.59,2.59,0,0,0,1.47-2.17,2.24,2.24,0,0,0-.51-1.34l34.55-19.48a.74.74,0,0,0,.34-.4l7.66-20.94,15.91-9-.75-1.33L213.21,437a.74.74,0,0,0-.34.4l-7.66,20.94L170.34,478a6.83,6.83,0,0,0-5.7.14,2.58,2.58,0,0,0-1.47,2.18A2.64,2.64,0,0,0,164.65,482.48Zm.75-3.05a4.55,4.55,0,0,1,2.24-.53,5,5,0,0,1,2,.38l.36.65.36-.2a.88.88,0,0,1,.33.58c0,.28-.26.59-.71.85a5.28,5.28,0,0,1-4.51,0c-.46-.26-.72-.58-.72-.87S165,479.69,165.4,479.43Z"/><path class="cls-23" d="M253,440.45l-38.09,22-.2.12L205.48,482l-33.75,19.81a3.22,3.22,0,0,0-.46-.34,6.81,6.81,0,0,0-6.05,0,2.36,2.36,0,0,0,0,4.37,6.15,6.15,0,0,0,3,.73h0a6.14,6.14,0,0,0,3-.74,2.61,2.61,0,0,0,1.48-2.19,2,2,0,0,0-.09-.6l34-20,9.2-19.4,37.89-21.88Zm-82.5,64a4.64,4.64,0,0,1-2.27.53h0a4.69,4.69,0,0,1-2.24-.52c-.45-.26-.7-.57-.7-.86s.26-.6.72-.87a5.11,5.11,0,0,1,4.51,0,2.17,2.17,0,0,1,.48.38l.19.33a.4.4,0,0,1,0,.15C171.2,503.91,170.94,504.22,170.48,504.49Z"/><path class="cls-24" d="M112,376.21l-7.66,20.94-23.4,13.16a6.85,6.85,0,0,0-5.71.14,2.59,2.59,0,0,0-1.47,2.18,2.65,2.65,0,0,0,1.49,2.2,6.2,6.2,0,0,0,3,.73,6,6,0,0,0,3-.73,2.59,2.59,0,0,0,1.47-2.17,2.22,2.22,0,0,0-.5-1.34l23.08-13a.74.74,0,0,0,.34-.4L113.31,377l15.91-9-.76-1.33-16.15,9.15A.74.74,0,0,0,112,376.21ZM81.2,412.66c0,.28-.26.59-.7.85a5.3,5.3,0,0,1-4.52,0c-.45-.26-.72-.58-.72-.87s.26-.59.71-.85a4.52,4.52,0,0,1,2.24-.53,4.93,4.93,0,0,1,1.94.38l.37.65.35-.2A.84.84,0,0,1,81.2,412.66Z"/><path class="cls-25" d="M113.79,401.41l-9.21,19.41-22.29,13.3a4.17,4.17,0,0,0-.46-.33,6.79,6.79,0,0,0-6,0,2.35,2.35,0,0,0,0,4.37,6.09,6.09,0,0,0,3,.73h0a6.1,6.1,0,0,0,3-.74A2.6,2.6,0,0,0,83.3,436a2.11,2.11,0,0,0-.1-.61l22.56-13.47,9.2-19.4,36-20.9-.76-1.32-36.23,21ZM81.05,436.84a4.7,4.7,0,0,1-2.27.53h0a4.7,4.7,0,0,1-2.25-.52c-.44-.26-.7-.57-.7-.86s.26-.6.72-.87a5.13,5.13,0,0,1,4.52,0,1.89,1.89,0,0,1,.47.38l.19.32a.47.47,0,0,1,0,.16C81.77,436.26,81.51,436.57,81.05,436.84Z"/><path class="cls-26" d="M168.55,454.47a.67.67,0,0,0,.4-.11L221.37,424l-.77-1.32-52.23,30.3-28.65-.57a1.07,1.07,0,0,0-.38.1L71.41,490.29a6.79,6.79,0,0,0-5.92.07A2.6,2.6,0,0,0,64,492.55a2.57,2.57,0,0,0,1.47,2.18,6.57,6.57,0,0,0,6,0A2.6,2.6,0,0,0,73,492.53a2.08,2.08,0,0,0-.37-1.17L139.9,453.9ZM71.47,492.53c0,.29-.26.61-.72.87a5.33,5.33,0,0,1-4.52,0c-.44-.26-.7-.57-.7-.86s.26-.6.72-.87a4.82,4.82,0,0,1,2.27-.53,4.7,4.7,0,0,1,2.25.52,2.44,2.44,0,0,1,.31.22l.14.25.07,0A.67.67,0,0,1,71.47,492.53Z"/><path class="cls-27" d="M107.79,437.91h-.18l-31.54,18.5a2.83,2.83,0,0,0-.47-.34,6.76,6.76,0,0,0-6,0,2.36,2.36,0,0,0,0,4.37,6.59,6.59,0,0,0,6,0,2.61,2.61,0,0,0,1.48-2.19,2,2,0,0,0-.09-.6l31.1-18.24,52.71-3.71H161l41.05-24-.77-1.32L160.5,434.2Zm-33,21.22a5.11,5.11,0,0,1-4.51,0c-.45-.26-.7-.57-.7-.86s.26-.6.72-.87a5.11,5.11,0,0,1,4.51,0,2.17,2.17,0,0,1,.48.38l.19.33a.39.39,0,0,1,0,.14C75.54,458.54,75.28,458.86,74.82,459.13Z"/><path class="cls-28" d="M232.77,496.75a2.61,2.61,0,0,0,1.48-2.19,2.1,2.1,0,0,0-.09-.61l8.35-4.94,13.63-23.25,19.3-11.49-.78-1.32L255,464.65,241.39,487.9l-8.14,4.81a4.33,4.33,0,0,0-.47-.33,6.79,6.79,0,0,0-6,0,2.35,2.35,0,0,0,0,4.37,6.59,6.59,0,0,0,6.05,0Zm-6-2.17c0-.28.26-.6.72-.87a4.82,4.82,0,0,1,2.27-.53,4.7,4.7,0,0,1,2.25.52,2.17,2.17,0,0,1,.48.38l.19.32a.9.9,0,0,1,0,.16c0,.29-.26.61-.72.87a5.31,5.31,0,0,1-4.51,0C227,495.18,226.78,494.87,226.78,494.58Z"/><path class="cls-29" d="M140.82,418.75l-8.09,4.79a3.33,3.33,0,0,0-.47-.34,6.79,6.79,0,0,0-6,0,2.62,2.62,0,0,0-1.49,2.2,2.59,2.59,0,0,0,1.47,2.17,6.59,6.59,0,0,0,6,0,2.61,2.61,0,0,0,1.48-2.19,2,2,0,0,0-.09-.6l8.39-5,6.9-16.44,19.26-11.46-.78-1.32-19.69,11.73Zm-9.34,7.5a5.31,5.31,0,0,1-4.51,0c-.45-.26-.71-.57-.71-.85s.26-.61.72-.87a4.71,4.71,0,0,1,2.28-.54,4.58,4.58,0,0,1,2.24.53,1.72,1.72,0,0,1,.48.38l.19.31a1.1,1.1,0,0,1,0,.16C132.2,425.67,131.94,426,131.48,426.25Z"/><path class="cls-30" d="M26.94,347.43l44.9,4.33.24,0,13.63-7.86-.77-1.33-13.2,7.62-44.89-4.32-.25,0L8,356.52a4.57,4.57,0,0,0-.48-.35,6.78,6.78,0,0,0-6.05,0A2.61,2.61,0,0,0,0,358.38a2.57,2.57,0,0,0,1.47,2.17,6,6,0,0,0,3,.74h0a6.2,6.2,0,0,0,3-.74A2.65,2.65,0,0,0,9,358.35a2.26,2.26,0,0,0-.09-.58ZM6.75,359.22a5.3,5.3,0,0,1-4.52,0c-.44-.26-.7-.57-.7-.85s.26-.61.72-.87A4.7,4.7,0,0,1,4.52,357a4.52,4.52,0,0,1,2.24.53,1.58,1.58,0,0,1,.48.38l.2.33a.89.89,0,0,1,0,.14C7.47,358.64,7.21,359,6.75,359.22Z"/><path class="cls-31" d="M91,375l23.82-14.15-.77-1.32-23.5,14-37,1.32h-.18l-15.84,8.68-19.41.13a6.83,6.83,0,0,0-5.81.12,2.35,2.35,0,0,0,0,4.37,6.12,6.12,0,0,0,3,.73,6.16,6.16,0,0,0,3-.74A2.61,2.61,0,0,0,19.76,386a2.05,2.05,0,0,0-.17-.77l18.27-.13,15.87-8.69,37.05-1.32ZM18.23,386c0,.29-.26.61-.72.87a5.31,5.31,0,0,1-4.51,0c-.45-.26-.71-.57-.71-.85s.26-.61.72-.88A5.12,5.12,0,0,1,17.4,385v.17h.28A1,1,0,0,1,18.23,386Z"/><path class="cls-32" d="M293.91,464.37l-32,18.53-1.59,22.93-33.31,19a3.43,3.43,0,0,0-.48-.34,6.76,6.76,0,0,0-6,0,2.61,2.61,0,0,0-1.48,2.19,2.57,2.57,0,0,0,1.46,2.18,6.12,6.12,0,0,0,3,.73,6.27,6.27,0,0,0,3-.74,2.64,2.64,0,0,0,1.48-2.2,1.9,1.9,0,0,0-.09-.58l33.88-19.31,1.59-22.94,31.3-18.12Zm-68.16,63.14a5.28,5.28,0,0,1-4.51,0c-.45-.25-.71-.56-.71-.85s.27-.61.72-.87a5.13,5.13,0,0,1,4.52,0,2.17,2.17,0,0,1,.48.38l.19.33a.89.89,0,0,1,0,.14C226.47,526.93,226.21,527.25,225.75,527.51Z"/><path class="cls-33" d="M274.74,498.78l39.44-22.66-.76-1.32-41.83,24,23,12.23L275,522.67a4.33,4.33,0,0,0-.47-.33,6.79,6.79,0,0,0-6,0,2.66,2.66,0,0,0-1.49,2.2,2.6,2.6,0,0,0,1.47,2.17,6.59,6.59,0,0,0,6.05,0,2.61,2.61,0,0,0,1.48-2.19,2.1,2.1,0,0,0-.09-.61L297.73,511Zm-1,26.61a5.31,5.31,0,0,1-4.51,0c-.45-.26-.71-.57-.71-.85s.27-.61.72-.88a4.83,4.83,0,0,1,2.28-.53,4.69,4.69,0,0,1,2.24.52,2.17,2.17,0,0,1,.48.38l.19.33a.8.8,0,0,1,0,.15C274.46,524.81,274.2,525.13,273.74,525.39Z"/><path class="cls-34" d="M335.65,483.85c-6.34,0-12.17-1.35-16.42-3.8L83.15,343.75c-4.45-2.57-6.91-6.2-6.91-10.2,0-4.74,3.47-9.46,9.53-13l134-77.35a43.6,43.6,0,0,1,21.19-5.31c6.35,0,12.18,1.35,16.43,3.8L493.44,378c4.46,2.58,6.92,6.2,6.92,10.2,0,4.74-3.47,9.47-9.53,13l-134,77.35A43.53,43.53,0,0,1,335.65,483.85ZM240.94,240.43a41.07,41.07,0,0,0-19.95,5L87,322.75c-5.26,3-8.28,7-8.28,10.8,0,3.08,2,5.93,5.67,8l236.08,136.3c3.87,2.24,9.26,3.47,15.17,3.47a41,41,0,0,0,20-5l134-77.36c5.27-3,8.29-7,8.29-10.8,0-3.07-2-5.93-5.67-8L256.12,243.89C252.25,241.66,246.86,240.43,240.94,240.43Z"/><g class="cls-35"><path class="cls-36" d="M339.54,482.62c-8.61,0-16.43-1.88-22.61-5.45L77.46,338.92c-8.24-4.77-13-12.3-13-20.67,0-9.18,5.7-17.73,15.62-23.46L216,216.32a55.71,55.71,0,0,1,27.47-7c8.61,0,16.43,1.89,22.61,5.45L505.55,353.05c8.25,4.76,13,12.29,13,20.67,0,9.17-5.7,17.73-15.63,23.46L367,475.64A55.68,55.68,0,0,1,339.54,482.62Z"/><path class="cls-37" d="M216.41,217.34a54.33,54.33,0,0,1,27.35-6.78,51.87,51.87,0,0,1,11.2,1.37,44.33,44.33,0,0,1,11.18,4.4L504.4,353.89c8.19,4.73,12.47,12.23,12,20.38a23.71,23.71,0,0,1-1.43,6.6c-2.08,5.82-8,12-14.67,15.89L366.46,474a53.1,53.1,0,0,1-5.86,2.88,56.75,56.75,0,0,1-21.12,4.17c-8.48,0-16.22-1.77-22.28-5.28L78,337.73C69.82,333,65.57,325.46,66.1,317.3a24.3,24.3,0,0,1,1.12-5.69c1.92-6.17,8-12.77,15-16.83Z"/><path class="cls-38" d="M216.81,218.35A53.16,53.16,0,0,1,244,211.77a51.68,51.68,0,0,1,11.1,1.56,50.72,50.72,0,0,1,11.05,4.54L503.24,354.73c8.15,4.7,12,12.16,11,20.09a26.49,26.49,0,0,1-1.76,6.29c-2,5.18-8.79,11.75-14.82,15.24L365.91,472.41a57.06,57.06,0,0,1-5.75,2.87,55.83,55.83,0,0,1-20.75,4.26c-8.33.09-16-1.66-22-5.1L78.61,336.54c-8.18-4.73-12-12.23-10.91-20.18a28.66,28.66,0,0,1,1.44-5.43c1.91-5.5,9-12.49,15.29-16.15Z"/><path class="cls-39" d="M217.2,219.37A51.9,51.9,0,0,1,244.32,213a51,51,0,0,1,11,1.74,60,60,0,0,1,10.92,4.67L502.08,355.56c8.1,4.68,11.51,12.09,10,19.81a29.57,29.57,0,0,1-2.09,6c-1.95,4.55-9.6,11.48-15,14.58L365.37,470.79c-1.37.79-4.14,2.23-5.64,2.87A55,55,0,0,1,339.34,478c-8.18.14-15.76-1.54-21.61-4.92L79.19,335.35c-8.16-4.71-11.5-12.18-9.88-19.94a34.38,34.38,0,0,1,1.75-5.15C72.92,305.43,81,298,86.58,294.78Z"/><path class="cls-40" d="M217.6,220.38a50.7,50.7,0,0,1,27-6.17,50.14,50.14,0,0,1,10.9,1.93,70,70,0,0,1,10.79,4.8L500.92,356.4c8.05,4.65,11.05,12,9,19.52a35.76,35.76,0,0,1-2.42,5.67c-1.84,3.92-10.43,11.21-15.12,13.93L364.83,469.18c-1.2.69-4.23,2.28-5.54,2.85a54.33,54.33,0,0,1-20,4.42c-8,.18-15.55-1.44-21.29-4.75L79.76,334.16c-8.12-4.69-11-12.13-8.84-19.69a43.9,43.9,0,0,1,2-4.89c1.78-4.17,10.84-12,15.77-14.8Z"/><path class="cls-41" d="M218,221.39c7.65-4.41,17.57-6.51,26.9-6a49.75,49.75,0,0,1,10.78,2.12,86.15,86.15,0,0,1,10.67,4.93L499.77,357.24c8,4.62,10.6,11.92,8,19.24a47.76,47.76,0,0,1-2.75,5.35c-1.68,3.3-11.24,10.95-15.27,13.27l-125.5,72.46c-1,.59-4.3,2.34-5.43,2.84a53.42,53.42,0,0,1-19.64,4.51c-7.9.22-15.32-1.33-20.95-4.58L80.33,333c-8.09-4.68-10.59-12.08-7.81-19.45.59-1.57,1.6-3,2.37-4.62,1.65-3.51,11.78-11.69,16-14.13Z"/><path class="cls-42" d="M218.39,222.41C226,218,236,216,245.17,216.64A47.91,47.91,0,0,1,255.85,219,104.67,104.67,0,0,1,266.39,224L498.61,358.08c7.95,4.59,10.17,11.84,7.05,18.95a20.83,20.83,0,0,1-3.08,5c-1,2.94-12.07,10.68-15.42,12.62L363.74,465.94c-.86.5-4.39,2.41-5.33,2.83a52.56,52.56,0,0,1-19.26,4.6c-7.76.27-15.1-1.22-20.62-4.4L80.91,331.78c-8.06-4.66-10.17-12-6.78-19.2a21,21,0,0,1,2.68-4.36c.86-3.11,12.72-11.42,16.24-13.45Z"/><path class="cls-43" d="M218.79,223.42c7.58-4.38,17.57-6.33,26.66-5.57a48.22,48.22,0,0,1,10.58,2.5c1.47.48,9.2,4.49,10.41,5.19l231,133.38c7.9,4.56,9.76,11.77,6.06,18.66a20.43,20.43,0,0,1-3.41,4.73c-.76,2.35-12.89,10.41-15.57,12L363.19,464.33c-.68.39-4.47,2.47-5.21,2.81a51.55,51.55,0,0,1-18.9,4.68c-7.61.32-14.88-1.1-20.29-4.22l-237.31-137c-8-4.64-9.76-12-5.75-19a21.75,21.75,0,0,1,3-4.09c.69-2.49,13.67-11.15,16.49-12.77Z"/><path class="cls-44" d="M219.18,224.44c7.56-4.37,17.58-6.24,26.55-5.37a46.84,46.84,0,0,1,10.48,2.69c1.1.37,9.37,4.8,10.28,5.32l229.8,132.68c7.86,4.53,9.37,11.71,5.08,18.37a21.87,21.87,0,0,1-3.74,4.42c-.57,1.76-13.71,10.14-15.72,11.3L362.65,462.71c-.52.3-4.55,2.54-5.11,2.8A50.91,50.91,0,0,1,339,470.28c-7.47.36-14.65-1-19.95-4L82.06,329.4c-8-4.62-9.37-12-4.72-18.71a22.16,22.16,0,0,1,3.3-3.82c.52-1.87,14.61-10.88,16.72-12.1Z"/><path class="cls-45" d="M219.58,225.45c7.53-4.35,17.58-6.14,26.44-5.17a46.52,46.52,0,0,1,10.36,2.88c.73.26,9.56,5.11,10.16,5.46l228.59,132c7.81,4.51,9,11.67,4.09,18.1a22.73,22.73,0,0,1-4.06,4.1c-.39,1.18-14.54,9.87-15.88,10.65L362.1,461.09c-.34.2-4.63,2.62-5,2.79A50.07,50.07,0,0,1,339,468.74c-7.33.4-14.44-.88-19.63-3.88L82.63,328.21c-8-4.6-9-12-3.68-18.47a22.13,22.13,0,0,1,3.61-3.55c.34-1.25,15.55-10.61,17-11.43Z"/><path class="cls-46" d="M220,226.46c7.5-4.33,17.6-6.05,26.33-5,3.81.48,7.16,1.91,10.26,3.07.37.13,9.73,5.41,10,5.58L494,361.43c7.75,4.48,8.61,11.65,3.1,17.81a23.24,23.24,0,0,1-4.4,3.79c-.19.59-15.35,9.61-16,10l-115.1,66.46c-.17.09-4.71,2.68-4.89,2.77a48.94,48.94,0,0,1-17.79,4.94c-7.18.45-14.21-.76-19.29-3.69L83.2,327c-7.94-4.58-8.62-12-2.65-18.22a24.24,24.24,0,0,1,3.92-3.29c.18-.62,16.5-10.34,17.21-10.75Z"/><path d="M319.86,462.13,83.78,325.83c-9.32-5.38-8.15-14.78,2.61-21l134-77.35c10.76-6.22,27-6.89,36.37-1.51l236.08,136.3c9.32,5.38,8.15,14.78-2.61,21l-134,77.35C345.46,466.84,329.18,467.51,319.86,462.13Z"/></g><path class="cls-47" d="M319.86,461.91,83.78,325.61c-4.16-2.4-6.23-5.59-6.29-8.95,0-.11,0-11.59,0-11.69.07-4.08,3.09,3,8.9-.36l134-77.35c10.76-6.21,27-6.89,36.37-1.51l236.08,136.3c3.11,1.8,5.37-5.83,6.18-3.4.26.81.09,11.51.11,12.34.09,4.18-2.93,8.61-8.9,12.06l-134,77.36C345.46,466.62,329.18,467.3,319.86,461.91Z"/><path class="cls-48" d="M319.86,450.43,83.78,314.13c-9.32-5.38-8.15-14.78,2.61-21l134-77.36c10.76-6.21,27-6.89,36.37-1.5l236.08,136.3c9.32,5.38,8.15,14.78-2.61,21l-134,77.36C345.46,455.14,329.18,455.82,319.86,450.43Z"/><path class="cls-49" d="M335.65,449.35c-5.31,0-10.08-1.06-13.44-3L86.14,310.05c-1.47-.85-3.94-2.63-3.94-5s2.45-5.43,6.55-7.8l134-77.35a37.41,37.41,0,0,1,18.21-4.51c5.32,0,10.09,1.06,13.44,3l236.08,136.3c1.47.85,3.94,2.63,3.94,5s-2.45,5.42-6.55,7.79l-134,77.36A37.53,37.53,0,0,1,335.65,449.35Z"/><path class="cls-50" d="M490.21,369.62,356.23,447c-10.77,6.21-27.05,6.89-36.37,1.51L83.78,312.19c-3.87-2.24-5.9-5.16-6.22-8.27-.49,3.81,1.55,7.52,6.22,10.21l236.08,136.3c9.32,5.39,25.6,4.71,36.37-1.5l134-77.36c6.3-3.63,9.28-8.36,8.83-12.73C498.56,362.63,495.58,366.52,490.21,369.62Z"/><path class="cls-51" d="M489.91,345.33,257.71,211.27a19.45,19.45,0,0,1-9-22.21l50.58-175a19.44,19.44,0,0,1,28.4-11.45l232.2,134a19.46,19.46,0,0,1,9,22.22l-50.58,175A19.45,19.45,0,0,1,489.91,345.33Z"/><path class="cls-52" d="M486.66,345.33,254.46,211.27a19.45,19.45,0,0,1-9-22.21l50.58-175a19.44,19.44,0,0,1,28.4-11.45l232.2,134a19.46,19.46,0,0,1,9,22.22l-50.58,175A19.45,19.45,0,0,1,486.66,345.33Z"/><path class="cls-53" d="M496.35,341.44a12.69,12.69,0,0,1-6.44-1.74L257.71,205.64a12.92,12.92,0,0,1-6-14.79l50.58-175A13,13,0,0,1,314.79,6.5a12.75,12.75,0,0,1,6.45,1.74L553.43,142.3a12.92,12.92,0,0,1,6,14.79l-50.58,175A13,13,0,0,1,496.35,341.44Z"/><path class="cls-54" d="M496.1,341a12.64,12.64,0,0,1-6.42-1.74L258.33,205.68a12.88,12.88,0,0,1-5.95-14.74L302.81,16.49a13,13,0,0,1,12.42-9.34,12.64,12.64,0,0,1,6.42,1.74L553,142.46a12.89,12.89,0,0,1,6,14.74L508.53,331.65A13,13,0,0,1,496.1,341Z"/><path class="cls-55" d="M495.86,340.54a12.63,12.63,0,0,1-6.4-1.73L258.94,205.72A12.82,12.82,0,0,1,253,191L303.29,17.1a12.93,12.93,0,0,1,12.38-9.3,12.63,12.63,0,0,1,6.4,1.73L552.59,142.62a12.85,12.85,0,0,1,5.93,14.68L508.24,331.23A12.94,12.94,0,0,1,495.86,340.54Z"/><path class="cls-56" d="M495.61,340.09a12.55,12.55,0,0,1-6.37-1.73L259.55,205.75a12.78,12.78,0,0,1-5.9-14.63l50.13-173.4a12.88,12.88,0,0,1,12.33-9.27,12.61,12.61,0,0,1,6.37,1.72L552.17,142.78a12.78,12.78,0,0,1,5.9,14.63L508,330.82A12.9,12.9,0,0,1,495.61,340.09Z"/><path class="cls-57" d="M495.37,339.64a12.54,12.54,0,0,1-6.35-1.72L260.17,205.79a12.73,12.73,0,0,1-5.88-14.58l50-172.87A12.85,12.85,0,0,1,316.55,9.1a12.57,12.57,0,0,1,6.35,1.72L551.75,142.94a12.73,12.73,0,0,1,5.88,14.58l-50,172.88A12.85,12.85,0,0,1,495.37,339.64Z"/><path class="cls-58" d="M495.12,339.19a12.46,12.46,0,0,1-6.32-1.72l-228-131.64a12.69,12.69,0,0,1-5.86-14.52L304.75,19A12.78,12.78,0,0,1,317,9.75a12.48,12.48,0,0,1,6.33,1.71l228,131.64a12.69,12.69,0,0,1,5.86,14.53L507.37,330A12.8,12.8,0,0,1,495.12,339.19Z"/><path class="cls-59" d="M494.88,338.73a12.53,12.53,0,0,1-6.31-1.7L261.4,205.86a12.61,12.61,0,0,1-5.84-14.46L305.23,19.57a12.74,12.74,0,0,1,12.2-9.17,12.47,12.47,0,0,1,6.3,1.7L550.91,143.26a12.65,12.65,0,0,1,5.84,14.47L507.08,329.56A12.75,12.75,0,0,1,494.88,338.73Z"/><path class="cls-60" d="M494.63,338.28a12.42,12.42,0,0,1-6.28-1.7L262,205.9a12.59,12.59,0,0,1-5.82-14.41L305.71,20.18a12.7,12.7,0,0,1,12.16-9.13,12.42,12.42,0,0,1,6.28,1.7L550.49,143.43a12.59,12.59,0,0,1,5.82,14.41L506.79,329.15A12.71,12.71,0,0,1,494.63,338.28Z"/><path class="cls-61" d="M494.39,337.83a12.41,12.41,0,0,1-6.26-1.69L262.62,205.94a12.55,12.55,0,0,1-5.79-14.36L306.2,20.8a12.65,12.65,0,0,1,12.11-9.11,12.39,12.39,0,0,1,6.25,1.7l225.51,130.2a12.54,12.54,0,0,1,5.8,14.36L506.5,328.73A12.66,12.66,0,0,1,494.39,337.83Z"/><path class="cls-62" d="M494.14,337.38a12.33,12.33,0,0,1-6.23-1.69L263.24,206a12.51,12.51,0,0,1-5.78-14.31L306.68,21.41a12.61,12.61,0,0,1,12.07-9.07A12.33,12.33,0,0,1,325,14L549.65,143.75a12.5,12.5,0,0,1,5.78,14.31L506.21,328.31A12.61,12.61,0,0,1,494.14,337.38Z"/><path class="cls-63" d="M493.9,336.93a12.32,12.32,0,0,1-6.21-1.68L263.85,206a12.44,12.44,0,0,1-5.75-14.25L307.17,22a12.56,12.56,0,0,1,12-9,12.29,12.29,0,0,1,6.21,1.69L549.23,143.91A12.47,12.47,0,0,1,555,158.17L505.92,327.89A12.57,12.57,0,0,1,493.9,336.93Z"/><path class="cls-64" d="M493.65,336.48a12.21,12.21,0,0,1-6.18-1.68l-223-128.75a12.42,12.42,0,0,1-5.73-14.2l48.92-169.2a12.52,12.52,0,0,1,12-9,12.25,12.25,0,0,1,6.19,1.68l223,128.75a12.39,12.39,0,0,1,5.73,14.2l-48.91,169.2A12.53,12.53,0,0,1,493.65,336.48Z"/><path class="cls-50" d="M556.68,136.67l-232.2-134A19.21,19.21,0,0,0,311.17.36,19.25,19.25,0,0,1,323,2.83L555.16,136.89a19.43,19.43,0,0,1,9,22.21l-50.58,175a19.39,19.39,0,0,1-15.08,13.72,19.41,19.41,0,0,0,16.6-13.93l50.58-175A19.46,19.46,0,0,0,556.68,136.67Z"/><ellipse class="cls-65" cx="215.05" cy="264.81" rx="58.93" ry="34.8" transform="translate(-74.44 84.35) rotate(-18.98)"/><path class="cls-66" d="M361.81,400.23,170.1,289.55c-3.84-2.22-3.35-6.09,1.08-8.65l72-41.56c4.44-2.56,11.14-2.83,15-.62L449.84,349.41c3.84,2.21,3.35,6.08-1.08,8.64l-72,41.56C372.35,402.17,365.65,402.44,361.81,400.23Z"/><path class="cls-67" d="M247.35,247.43l12.29,7.09a6.2,6.2,0,0,0,5.64,0c1.55-.89,1.54-2.35,0-3.25L253,244.19a6.23,6.23,0,0,0-5.64,0C245.78,245.07,245.79,246.53,247.35,247.43Zm21,12.14,5.82,3.36a6.2,6.2,0,0,0,5.64,0c1.56-.89,1.55-2.35,0-3.25L274,256.33a6.23,6.23,0,0,0-5.64,0C266.81,257.22,266.82,258.67,268.38,259.57ZM283,268l5.82,3.36a6.26,6.26,0,0,0,5.64,0c1.55-.9,1.55-2.36,0-3.26l-5.82-3.36a6.23,6.23,0,0,0-5.64,0C281.38,265.63,281.39,267.08,283,268Zm14.57,8.41,5.82,3.36a6.26,6.26,0,0,0,5.64,0c1.55-.9,1.54-2.36,0-3.26l-5.82-3.36a6.23,6.23,0,0,0-5.64,0C296,274,296,275.49,297.52,276.4Zm14.57,8.41,5.82,3.36a6.26,6.26,0,0,0,5.64,0c1.55-.9,1.54-2.36,0-3.26l-5.82-3.36a6.23,6.23,0,0,0-5.64,0C310.52,282.45,310.53,283.91,312.09,284.81Zm14.57,8.41,5.82,3.36a6.26,6.26,0,0,0,5.64,0c1.55-.9,1.54-2.36,0-3.26L332.28,290a6.26,6.26,0,0,0-5.64,0C325.09,290.86,325.09,292.32,326.66,293.22Zm14.56,8.41L347,305a6.23,6.23,0,0,0,5.64,0c1.56-.9,1.55-2.36,0-3.26l-5.82-3.36a6.26,6.26,0,0,0-5.64,0C339.65,299.27,339.66,300.73,341.22,301.63ZM355.79,310l5.82,3.36a6.23,6.23,0,0,0,5.64,0c1.55-.9,1.55-2.35,0-3.26l-5.82-3.36a6.26,6.26,0,0,0-5.64,0C354.22,307.68,354.23,309.14,355.79,310Zm14.57,8.41,5.82,3.36a6.23,6.23,0,0,0,5.64,0c1.55-.9,1.54-2.35,0-3.26L376,315.2a6.26,6.26,0,0,0-5.64,0C368.79,316.09,368.8,317.55,370.36,318.45Zm14.57,8.41,5.82,3.36a6.23,6.23,0,0,0,5.64,0c1.55-.9,1.54-2.35,0-3.25l-5.82-3.36a6.2,6.2,0,0,0-5.64,0C383.36,324.5,383.37,326,384.93,326.86Zm14.57,8.41,5.82,3.36a6.21,6.21,0,0,0,5.63,0c1.56-.89,1.55-2.35,0-3.25L405.12,332a6.2,6.2,0,0,0-5.64,0C397.93,332.91,397.93,334.37,399.5,335.27Zm14.56,8.41,5.82,3.36a6.23,6.23,0,0,0,5.64,0c1.56-.89,1.55-2.35,0-3.25l-5.82-3.36a6.23,6.23,0,0,0-5.64,0C412.49,341.32,412.5,342.78,414.06,343.68Zm14.87,8.59,5.82,3.36a6.26,6.26,0,0,0,5.64,0c1.56-.9,1.55-2.36,0-3.26L434.56,349a6.26,6.26,0,0,0-5.64,0C427.36,349.91,427.37,351.37,428.93,352.27ZM234.25,255.45l5,2.91a7.1,7.1,0,0,0,6.41,0l5-2.89c1.77-1,1.76-2.68,0-3.71l-5-2.91a7.12,7.12,0,0,0-6.42,0l-5,2.89C232.46,252.76,232.47,254.42,234.25,255.45Zm26,11.33,5-2.89c1.77-1,1.76-2.68,0-3.71l-5-2.91a7.12,7.12,0,0,0-6.42,0l-5,2.89c-1.77,1-1.76,2.68,0,3.71l5,2.91A7.12,7.12,0,0,0,260.27,266.78Zm3.11,5.49,5,2.91a7.12,7.12,0,0,0,6.42,0l5-2.89c1.76-1,1.76-2.68,0-3.71l-5-2.91a7.12,7.12,0,0,0-6.42,0l-5,2.89C261.6,269.58,261.61,271.24,263.38,272.27ZM278,280.68l5,2.91a7.12,7.12,0,0,0,6.42,0l5-2.89c1.76-1,1.75-2.68,0-3.71l-5-2.91a7.12,7.12,0,0,0-6.42,0l-5,2.89C276.17,278,276.17,279.65,278,280.68Zm31,4.73-5-2.9a7.07,7.07,0,0,0-6.41,0l-5,2.89c-1.77,1-1.76,2.68,0,3.71l5,2.91a7.09,7.09,0,0,0,6.42,0l5-2.89C310.75,288.1,310.74,286.44,309,285.41Zm14.57,8.41-5-2.9a7.09,7.09,0,0,0-6.42,0l-5,2.9c-1.77,1-1.76,2.67,0,3.7l5,2.91a7.07,7.07,0,0,0,6.41,0l5-2.89C325.32,296.51,325.31,294.85,323.53,293.82Zm14.57,8.42-5-2.91a7.09,7.09,0,0,0-6.42,0l-5,2.89c-1.77,1-1.76,2.68,0,3.7l5,2.91a7.09,7.09,0,0,0,6.42,0l5-2.89C339.89,304.92,339.88,303.26,338.1,302.24Zm14.57,8.41-5-2.91a7.09,7.09,0,0,0-6.42,0l-5,2.89c-1.76,1-1.75,2.68,0,3.7l5,2.91a7.09,7.09,0,0,0,6.42,0l5-2.89C354.45,313.33,354.44,311.67,352.67,310.65Zm14.56,8.41-5-2.91a7.09,7.09,0,0,0-6.42,0l-5,2.89c-1.77,1-1.76,2.68,0,3.7l5,2.91a7.09,7.09,0,0,0,6.42,0l5-2.89C369,321.74,369,320.08,367.23,319.06Zm14.57,8.41-5-2.91a7.07,7.07,0,0,0-6.41,0l-5,2.89c-1.77,1-1.76,2.68,0,3.7l5,2.91a7.09,7.09,0,0,0,6.42,0l5-2.89C383.59,330.15,383.58,328.49,381.8,327.47Zm-1.87,12.09,5,2.9a7.07,7.07,0,0,0,6.41,0l5-2.9c1.77-1,1.76-2.67,0-3.7l-5-2.91a7.09,7.09,0,0,0-6.42,0l-5,2.89C378.14,336.87,378.15,338.53,379.93,339.56Zm31,4.73-5-2.91a7.09,7.09,0,0,0-6.42,0l-5,2.89c-1.77,1-1.76,2.68,0,3.71l5,2.9a7.09,7.09,0,0,0,6.42,0l5-2.89C412.73,347,412.72,345.32,410.94,344.29Zm21.34,12.32L420.77,350a7.09,7.09,0,0,0-6.42,0l-5,2.89c-1.77,1-1.76,2.68,0,3.7l11.5,6.64a7.09,7.09,0,0,0,6.42,0l5-2.89C434.06,359.29,434.05,357.64,432.28,356.61ZM220.76,263.24l11.5,6.64a7.09,7.09,0,0,0,6.42,0l5-2.89c1.77-1,1.76-2.68,0-3.71l-11.5-6.64a7.12,7.12,0,0,0-6.42,0l-5,2.89C219,260.55,219,262.21,220.76,263.24Zm21,12.14,5,2.91a7.09,7.09,0,0,0,6.42,0l5-2.89c1.77-1,1.76-2.68,0-3.71l-5-2.9a7.07,7.07,0,0,0-6.41,0l-5,2.9C240,272.7,240,274.35,241.79,275.38Zm19.6,11.32a7.09,7.09,0,0,0,6.42,0l5-2.89c1.77-1,1.76-2.68,0-3.7l-5-2.91a7.09,7.09,0,0,0-6.42,0l-5,2.89c-1.77,1-1.76,2.68,0,3.7ZM276,295.11a7.09,7.09,0,0,0,6.42,0l5-2.89c1.76-1,1.76-2.68,0-3.7l-5-2.91a7.09,7.09,0,0,0-6.42,0l-5,2.89c-1.76,1-1.75,2.68,0,3.7ZM290.48,294l-5,2.89c-1.76,1-1.76,2.68,0,3.7l5,2.91a7.09,7.09,0,0,0,6.42,0l5-2.89c1.76-1,1.75-2.68,0-3.7l-5-2.91A7.09,7.09,0,0,0,290.48,294Zm14.87,8.23-5.62,3.25c-1.59.92-1.59,2.42,0,3.35l5.66,3.26a6.41,6.41,0,0,0,5.8,0l5.62-3.24c1.6-.93,1.59-2.43,0-3.35l-5.65-3.27A6.43,6.43,0,0,0,305.35,302.25Zm14.57,8.41-5.62,3.25c-1.6.92-1.59,2.42,0,3.35l5.66,3.26a6.41,6.41,0,0,0,5.8,0l5.62-3.24c1.6-.93,1.59-2.42,0-3.35l-5.66-3.27A6.41,6.41,0,0,0,319.92,310.66Zm14.57,8.41-5.62,3.25c-1.6.92-1.59,2.42,0,3.35l5.65,3.26a6.4,6.4,0,0,0,5.81,0L346,325.7c1.59-.92,1.59-2.42,0-3.35l-5.66-3.27A6.41,6.41,0,0,0,334.49,319.07Zm14.57,8.41-5.62,3.25c-1.6.92-1.59,2.42,0,3.35l5.66,3.26a6.38,6.38,0,0,0,5.8,0l5.63-3.24c1.59-.92,1.58-2.42,0-3.35l-5.66-3.27A6.44,6.44,0,0,0,349.06,327.48Zm14.57,8.41L358,339.14c-1.59.92-1.58,2.42,0,3.35l5.66,3.26a6.41,6.41,0,0,0,5.8,0l5.62-3.25c1.6-.92,1.59-2.42,0-3.35l-5.65-3.27A6.44,6.44,0,0,0,363.63,335.89Zm20.42,18.29,5.62-3.25c1.6-.92,1.59-2.42,0-3.35L384,344.31a6.46,6.46,0,0,0-5.81,0l-5.62,3.25c-1.59.92-1.59,2.42,0,3.35l5.66,3.27A6.44,6.44,0,0,0,384.05,354.18Zm14.57,8.41,5.62-3.25c1.6-.92,1.59-2.42,0-3.35l-5.66-3.26a6.41,6.41,0,0,0-5.8,0L387.14,356c-1.6.92-1.59,2.42,0,3.35l5.66,3.27A6.44,6.44,0,0,0,398.62,362.59Zm20.47,2-5.66-3.27a6.41,6.41,0,0,0-5.8,0L402,364.55c-1.6.92-1.59,2.42,0,3.35l5.66,3.26a6.41,6.41,0,0,0,5.8,0l5.62-3.24C420.71,367,420.7,365.51,419.09,364.58ZM207,270.85l18.27,10.54a6.38,6.38,0,0,0,5.8,0l5.62-3.24c1.6-.92,1.59-2.42,0-3.35l-18.26-10.55a6.44,6.44,0,0,0-5.8,0l-5.63,3.25C205.34,268.42,205.35,269.92,207,270.85Zm27.18,15.69,5.66,3.26a6.41,6.41,0,0,0,5.8,0l5.62-3.25c1.6-.92,1.59-2.42,0-3.35L245.53,280a6.44,6.44,0,0,0-5.8,0l-5.62,3.25C232.51,284.11,232.52,285.61,234.13,286.54ZM248.7,295l5.65,3.27a6.44,6.44,0,0,0,5.8,0l5.63-3.25c1.59-.92,1.59-2.42,0-3.35l-5.66-3.27a6.44,6.44,0,0,0-5.8,0l-5.62,3.25C247.08,292.52,247.09,294,248.7,295Zm14.56,8.41,5.66,3.27a6.44,6.44,0,0,0,5.8,0l5.62-3.25c1.6-.92,1.59-2.42,0-3.35l-5.66-3.26a6.38,6.38,0,0,0-5.8,0L263.25,300C261.65,300.93,261.66,302.43,263.26,303.36Zm26,11.69,5.62-3.25c1.6-.92,1.59-2.42,0-3.35l-5.65-3.26a6.38,6.38,0,0,0-5.8,0l-5.63,3.24c-1.59.92-1.58,2.42,0,3.35l5.66,3.27A6.41,6.41,0,0,0,289.29,315.05Zm14.57,8.41,5.62-3.25c1.6-.92,1.59-2.42,0-3.35l-5.66-3.26a6.38,6.38,0,0,0-5.8,0l-5.62,3.24c-1.6.92-1.59,2.42,0,3.35l5.66,3.27A6.41,6.41,0,0,0,303.86,323.46Zm14.57,8.41,5.62-3.25c1.6-.92,1.59-2.42,0-3.35L318.37,322a6.41,6.41,0,0,0-5.8,0L307,325.24c-1.6.93-1.59,2.42,0,3.35l5.66,3.27A6.41,6.41,0,0,0,318.43,331.87ZM333,340.28l5.63-3.25c1.59-.92,1.59-2.42,0-3.34l-5.66-3.27a6.41,6.41,0,0,0-5.8,0l-5.62,3.24c-1.6.93-1.59,2.43,0,3.35l5.65,3.27A6.41,6.41,0,0,0,333,340.28Zm14.57,8.41,5.62-3.24c1.6-.93,1.59-2.43,0-3.35l-5.66-3.27a6.41,6.41,0,0,0-5.8,0l-5.62,3.25c-1.6.92-1.59,2.42,0,3.34l5.66,3.27A6.41,6.41,0,0,0,347.56,348.69Zm14.57,8.41,5.62-3.24c1.6-.93,1.59-2.43,0-3.35l-5.65-3.27a6.41,6.41,0,0,0-5.8,0l-5.63,3.25c-1.59.92-1.59,2.42,0,3.35l5.66,3.26A6.41,6.41,0,0,0,362.13,357.1Zm3.11,5.14,5.66,3.26a6.41,6.41,0,0,0,5.8,0l5.62-3.24c1.6-.93,1.59-2.42,0-3.35l-5.66-3.27a6.41,6.41,0,0,0-5.8,0l-5.62,3.25C363.62,359.81,363.63,361.31,365.24,362.24Zm40.36,10.13-14.39-8.31a6.41,6.41,0,0,0-5.8,0l-5.62,3.25c-1.6.92-1.59,2.42,0,3.35l14.38,8.3a6.38,6.38,0,0,0,5.8,0l5.63-3.24C407.21,374.8,407.21,373.3,405.6,372.37ZM193.51,279l25.92,15a7.27,7.27,0,0,0,6.55,0l4.88-2.82c1.8-1,1.79-2.73,0-3.78l-25.92-15a7.2,7.2,0,0,0-6.55,0l-4.88,2.81C191.69,276.3,191.7,278,193.51,279Zm35.59,20.55,4.9,2.83a7.27,7.27,0,0,0,6.55,0l4.87-2.82c1.81-1,1.8-2.73,0-3.78L240.5,293a7.23,7.23,0,0,0-6.55,0l-4.87,2.81C227.27,296.84,227.28,298.54,229.1,299.59ZM243.66,308l4.91,2.83a7.27,7.27,0,0,0,6.55,0L260,308c1.81-1,1.8-2.74,0-3.79l-4.9-2.83a7.23,7.23,0,0,0-6.55,0l-4.88,2.81C241.84,305.25,241.85,307,243.66,308Zm14.57,8.41,4.91,2.83a7.23,7.23,0,0,0,6.55,0l4.87-2.81c1.8-1.05,1.8-2.74,0-3.79l-4.9-2.83a7.26,7.26,0,0,0-6.56,0l-4.87,2.81C256.41,313.66,256.42,315.36,258.23,316.41Zm14.57,8.41,4.9,2.83a7.26,7.26,0,0,0,6.56,0l4.87-2.81c1.8-1,1.79-2.74,0-3.79l-4.9-2.83a7.26,7.26,0,0,0-6.56,0L272.78,321C271,322.08,271,323.77,272.8,324.82Zm14.57,8.41,4.9,2.83a7.23,7.23,0,0,0,6.55,0l4.88-2.81c1.8-1,1.79-2.74,0-3.79l-4.91-2.83a7.27,7.27,0,0,0-6.55,0l-4.87,2.81C285.54,330.49,285.55,332.18,287.37,333.23Zm14.57,8.41,4.9,2.83a7.23,7.23,0,0,0,6.55,0l4.87-2.81c1.81-1,1.8-2.74,0-3.78l-4.9-2.84a7.27,7.27,0,0,0-6.55,0l-4.87,2.82C300.11,338.9,300.12,340.59,301.94,341.64Zm14.56,8.41,4.91,2.83a7.23,7.23,0,0,0,6.55,0l4.87-2.81c1.81-1,1.8-2.74,0-3.78l-4.9-2.83a7.23,7.23,0,0,0-6.55,0l-4.88,2.82C314.68,347.31,314.69,349,316.5,350.05Zm14.57,8.41,4.91,2.83a7.23,7.23,0,0,0,6.55,0l4.87-2.81c1.8-1,1.8-2.74,0-3.78l-4.9-2.83a7.26,7.26,0,0,0-6.56,0l-4.87,2.82C329.25,355.72,329.26,357.41,331.07,358.46Zm14.57,8.41,4.9,2.83a7.22,7.22,0,0,0,6.56,0L362,366.9c1.8-1,1.79-2.73,0-3.78L357,360.29a7.23,7.23,0,0,0-6.55,0l-4.87,2.82C343.82,364.13,343.82,365.82,345.64,366.87Zm14.57,8.41,4.9,2.83a7.2,7.2,0,0,0,6.55,0l4.88-2.81c1.8-1,1.79-2.73,0-3.78l-4.91-2.83a7.2,7.2,0,0,0-6.55,0l-4.87,2.81C358.38,372.54,358.39,374.23,360.21,375.28Zm31.2,4.85-4.91-2.83a7.23,7.23,0,0,0-6.55,0l-4.87,2.82c-1.81,1-1.8,2.73,0,3.78l4.9,2.83a7.26,7.26,0,0,0,6.56,0l4.87-2.81C393.23,382.87,393.22,381.17,391.41,380.13ZM202.8,286.81l-11.37-6.56a7.22,7.22,0,0,0-6.56,0L180,283.05c-1.8,1-1.79,2.73,0,3.78l11.37,6.57a7.27,7.27,0,0,0,6.55,0l4.88-2.82C204.62,289.55,204.61,287.86,202.8,286.81Zm14.56,8.41-4.9-2.83a7.23,7.23,0,0,0-6.55,0L201,295.19c-1.81,1-1.8,2.74,0,3.79l4.9,2.83a7.27,7.27,0,0,0,6.55,0l4.87-2.81C219.19,298,219.18,296.27,217.36,295.22Zm14.57,8.41L227,300.8a7.23,7.23,0,0,0-6.55,0l-4.88,2.81c-1.8,1-1.79,2.74,0,3.79l4.91,2.83a7.23,7.23,0,0,0,6.55,0l4.87-2.81C233.76,306.37,233.75,304.68,231.93,303.63Zm102,58.88-92.31-53.3a7.29,7.29,0,0,0-6.56,0L230.17,312c-1.8,1.05-1.79,2.74,0,3.79l92.31,53.29a7.26,7.26,0,0,0,6.56,0l4.87-2.82C335.73,365.25,335.72,363.56,333.91,362.51Zm14.56,8.41-4.9-2.83a7.23,7.23,0,0,0-6.55,0l-4.87,2.81c-1.81,1-1.8,2.74,0,3.78l4.9,2.83a7.23,7.23,0,0,0,6.55,0l4.88-2.82C350.3,373.66,350.29,372,348.47,370.92ZM363,379.33l-4.9-2.83a7.23,7.23,0,0,0-6.55,0l-4.88,2.81c-1.8,1-1.79,2.74,0,3.78l4.91,2.84a7.27,7.27,0,0,0,6.55,0l4.87-2.82C364.87,382.07,364.86,380.38,363,379.33Zm14.87,8.59-4.9-2.83a7.23,7.23,0,0,0-6.55,0l-4.87,2.82c-1.81,1-1.8,2.73,0,3.78l4.9,2.83a7.23,7.23,0,0,0,6.55,0l4.87-2.81C379.74,390.66,379.73,389,377.91,387.92Z"/><rect class="cls-68" x="195.06" y="111.73" width="206.01" height="0.76" transform="matrix(0.28, -0.96, 0.96, 0.28, 107.78, 367.46)"/><rect class="cls-69" x="218.98" y="125.41" width="206.01" height="0.76" transform="translate(111.93 400.33) rotate(-73.92)"/><rect class="cls-70" x="242.91" y="139.08" width="206.01" height="0.76" transform="matrix(0.28, -0.96, 0.96, 0.28, 116.09, 433.21)"/><rect class="cls-71" x="266.83" y="152.75" width="206.01" height="0.76" transform="matrix(0.28, -0.96, 0.96, 0.28, 120.25, 466.08)"/><rect class="cls-72" x="290.75" y="166.43" width="206.01" height="0.76" transform="matrix(0.28, -0.96, 0.96, 0.28, 124.4, 498.95)"/><rect class="cls-73" x="314.68" y="180.1" width="206.01" height="0.76" transform="translate(128.56 531.83) rotate(-73.92)"/><rect class="cls-74" x="338.6" y="193.78" width="206.01" height="0.76" transform="translate(132.72 564.7) rotate(-73.92)"/><rect class="cls-75" x="362.52" y="207.45" width="206.01" height="0.76" transform="translate(136.87 597.57) rotate(-73.92)"/><rect class="cls-76" x="386.45" y="221.13" width="206.01" height="0.76" transform="translate(141.03 630.45) rotate(-73.92)"/><rect class="cls-77" x="410.37" y="234.8" width="206.01" height="0.76" transform="translate(145.19 663.32) rotate(-73.92)"/><polygon class="cls-78" points="553.12 165.19 303.16 19.18 303.55 18.52 553.51 164.53 553.12 165.19"/><polygon class="cls-79" points="546.78 186.72 296.82 40.72 297.21 40.06 547.17 186.06 546.78 186.72"/><polygon class="cls-80" points="540.45 208.25 290.48 62.25 290.87 61.59 540.83 207.59 540.45 208.25"/><polygon class="cls-81" points="534.11 229.78 284.14 83.78 284.53 83.12 534.49 229.12 534.11 229.78"/><polygon class="cls-82" points="527.77 251.31 277.81 105.31 278.19 104.65 528.15 250.65 527.77 251.31"/><polygon class="cls-83" points="521.43 272.84 271.47 126.84 271.86 126.18 521.82 272.18 521.43 272.84"/><rect class="cls-84" x="389.92" y="76.3" width="0.76" height="289.48" transform="translate(2.58 446.58) rotate(-59.71)"/><rect class="cls-85" x="383.58" y="97.83" width="0.76" height="289.48" transform="translate(-19.15 451.78) rotate(-59.71)"/><rect class="cls-86" x="377.24" y="119.36" width="0.77" height="289.48" transform="translate(-40.88 456.98) rotate(-59.71)"/><path class="cls-87" d="M260,169.06l-7,25.07a7.42,7.42,0,0,0,3.43,8.44L492.23,339a8.52,8.52,0,0,0,12.47-5.08l32.54-116.24L466.82,227l-47.74-25.43L375,203.31l-17.26-29.17-58.26,3.12Z"/><polygon class="cls-88" points="473.81 209.18 473.6 209.06 426.04 183.73 381.69 185.49 364.43 156.33 306.54 159.43 306.44 159.41 267 151.21 267.31 149.71 306.65 157.9 365.27 154.76 382.54 183.93 426.39 182.19 474.1 207.59 544.27 198.32 544.48 199.83 473.81 209.18"/><path class="cls-89" d="M255.94,183.65,253,194.13a7.42,7.42,0,0,0,3.43,8.44L492.23,339a8.52,8.52,0,0,0,12.47-5.08L514.19,300l-36.46-46.8-30.57,7.91-22.59-39.68-46.25.23-17.68-25.64-48.89,2.54Z"/><path class="cls-90" d="M253,194.13h0a7.42,7.42,0,0,0,3.43,8.44L492.23,339a8.52,8.52,0,0,0,12.47-5.08l1.74-6.23-13.25-27.2-37.37,3.05L418.36,251,369,241l-12.49-20.59-53.58-4.27Z"/><polygon class="cls-91" points="521.04 164.59 420.19 106.19 418.27 113.06 519.12 171.46 521.04 164.59"/><polygon class="cls-92" points="495.17 165.98 416.4 120.37 414.48 127.24 493.25 172.85 495.17 165.98"/><path class="cls-93" d="M334,147.57c-22.49-13.38-36-45.15-30.05-70.82s29-35.66,51.52-22.28,36,45.14,30,70.81S356.43,161,334,147.57Zm20.68-89.7c-20.84-12.4-42.26-3.13-47.74,20.66s7,53.23,27.84,65.63,42.26,3.14,47.75-20.65S375.47,70.27,354.63,57.87Z"/><path class="cls-94" d="M338.73,126.85c-12.48-7.43-20-25-16.67-39.3a26.53,26.53,0,0,1,1.22-3.9l-8.93-7.45a40.59,40.59,0,0,0-2.9,19.68c1.67,22.55,17.77,43.24,36,46.22l-.91-12.27A23.11,23.11,0,0,1,338.73,126.85Z"/><path class="cls-95" d="M371.39,85.54,363.81,90c3.83,7.67,5.32,16.61,3.5,24.52A21.56,21.56,0,0,1,361,125.86L367.87,136C379.29,125.17,380.76,104.2,371.39,85.54Z"/><path class="cls-96" d="M350.64,75.19A35.45,35.45,0,0,1,363.81,90l7.58-4.42c-4.68-9.33-10.74-16.1-18.58-20.77l-2.38,10.3Z"/><path class="cls-97" d="M350.43,75.07l2.38-10.3c-15.69-9.33-31.67-4.58-38.46,11.43l8.93,7.45C327.81,72.43,339.23,68.54,350.43,75.07Z"/><path class="cls-98" d="M333.91,79.41l6.26,12.49a6.37,6.37,0,0,1,6.53.39,11.56,11.56,0,0,1,3.83,3.88l7.65-7.26a27.14,27.14,0,0,0-8.72-8.61C343.91,77,338.28,76.9,333.91,79.41Z"/><path class="cls-99" d="M352.33,105.57c-1.11,4.82-5.44,6.69-9.66,4.18a10.44,10.44,0,0,1-.94-.65l-4.56,10.73a24,24,0,0,0,2.74,1.91c10,6,20.29,1.5,22.93-9.92a26,26,0,0,0,.56-7.34l-10.82-1.77A10.93,10.93,0,0,1,352.33,105.57Z"/><path class="cls-100" d="M337,96.71l-10.51-6.25c-2.26,10.3,2.42,22.72,10.69,29.37l4.56-10.73A13.2,13.2,0,0,1,337,96.71Z"/><path class="cls-101" d="M337,96.47a6.83,6.83,0,0,1,3.13-4.57l-6.26-12.49c-3.51,2-6.2,5.72-7.38,10.81,0,.08,0,.16,0,.24L337,96.71C337,96.63,337,96.55,337,96.47Z"/><path class="cls-102" d="M454.51,439.14a16.37,16.37,0,1,1-22.18-6.65A16.37,16.37,0,0,1,454.51,439.14Z"/><path class="cls-103" d="M385.22,303.18l-35.43,19.09,70.35,130.55h0a1,1,0,0,1,.07.15c3.07,5.69,13.49,6,23.28.77s15.23-14.17,12.16-19.87a1,1,0,0,1-.08-.14h0Z"/><path class="cls-104" d="M385.22,303.18l-35.43,19.09,70.35,130.55h0a1,1,0,0,1,.07.15c3.07,5.69,13.49,6,23.28.77s15.23-14.17,12.16-19.87a1,1,0,0,1-.08-.14h0Z"/><path class="cls-105" d="M385.26,303.25c3.07,5.7-2.37,14.59-12.16,19.86s-20.2,4.93-23.27-.77,2.37-14.59,12.16-19.86S382.19,297.55,385.26,303.25Z"/><path class="cls-106" d="M362,277.31l-21.08,11.35,15,27.82h0a.56.56,0,0,1,.05.08c1.82,3.39,8,3.6,13.84.46s9.06-8.43,7.23-11.82l-.05-.08h0Z"/><g class="cls-107"><polygon class="cls-108" points="148.78 109.5 148.78 168.01 548.28 398.66 548.28 156.41 455.12 184.91 379.77 145.01 319.87 155.25 284.93 103.56 206.1 118.58 148.78 109.5"/><polygon class="cls-109" points="160.31 144.45 160.31 175.09 559.81 405.74 559.81 320.8 491.74 239.25 452.79 258.84 406.5 188.36 343.04 196.09 308.91 151.05 242.72 163.52 160.31 144.45"/><polygon class="cls-110" points="171.05 170.77 171.05 181.37 570.56 412.03 570.56 379.92 541.89 331.26 491.73 342.86 420.07 250.79 348.41 239.84 323.33 203.39 248.09 203.88 171.05 170.77"/><g class="cls-111"><polygon class="cls-112" points="285.9 277.98 284.33 277.98 284.33 104.32 203.36 58.91 204.13 57.54 285.9 103.4 285.9 277.98"/></g><path class="cls-113" d="M284.26,107.61a8.24,8.24,0,0,1-3.75-6.46c0-2.37,1.68-3.32,3.75-2.13a8.24,8.24,0,0,1,3.74,6.46C288,107.85,286.33,108.81,284.26,107.61Z"/><g class="cls-111"><polygon class="cls-114" points="310.02 324.89 308.44 324.89 308.44 151.23 198.12 89.18 198.89 87.81 310.02 150.31 310.02 324.89"/></g><path class="cls-113" d="M308.37,154.52a8.23,8.23,0,0,1-3.75-6.45c0-2.38,1.68-3.33,3.75-2.14a8.26,8.26,0,0,1,3.74,6.46C312.11,154.76,310.44,155.72,308.37,154.52Z"/><g class="cls-111"><polygon class="cls-115" points="324.17 378.09 322.59 378.09 322.59 204.43 190.51 129.54 191.29 128.17 324.17 203.52 324.17 378.09"/></g><path class="cls-113" d="M322.52,207.73a8.26,8.26,0,0,1-3.74-6.46c0-2.38,1.67-3.33,3.74-2.14a8.26,8.26,0,0,1,3.74,6.46C326.26,208,324.59,208.92,322.52,207.73Z"/><polygon class="cls-113" points="312.77 116.41 292.34 104.5 292.34 109.81 312.77 121.72 312.77 116.41"/><polygon class="cls-113" points="335.57 162.4 315.14 150.49 315.14 155.81 335.57 167.72 335.57 162.4"/><polygon class="cls-113" points="348.94 215.47 328.51 203.56 328.51 208.88 348.94 220.79 348.94 215.47"/></g><path class="cls-116" d="M300.17,276.18c-53.37-30.81-96.63-105.43-96.63-166.67,0-24.6,7-43.29,18.8-54.86C199.85,62,185.4,85.14,185.4,120.52c0,61.24,43.26,135.86,96.63,166.67,31.93,18.43,60.23,17,77.83-.23C343.42,292.3,322.7,289.18,300.17,276.18Z"/><ellipse class="cls-117" cx="286.67" cy="172.98" rx="74.43" ry="128.92" transform="translate(-48.12 168.33) rotate(-30.31)"/><ellipse class="cls-118" cx="286.67" cy="172.98" rx="74.43" ry="128.92" transform="translate(-48.12 168.33) rotate(-30.31)"/><path class="cls-119" d="M302.52,53.74c-26.24-15.15-50-16.89-67.45-7.46-.49.26-25.48,14.21-26.27,15.42,17.72-13.37,43.95-13.17,73.23,3.73,53.36,30.81,96.62,105.43,96.62,166.67,0,31.24-11.26,53-29.38,62.65a21.92,21.92,0,0,0,4.71-2.07c.52-.29,17.56-10.62,18.06-10.92,16.78-10.26,27.1-31.45,27.1-61.36C399.14,159.17,355.88,84.55,302.52,53.74Z"/><path class="cls-120" d="M282,65.43c-53.37-30.81-96.63-6.14-96.63,55.09S228.66,256.38,282,287.19s96.62,6.14,96.62-55.09S335.39,96.24,282,65.43Zm-.68,214.42c-49.26-28.45-89.2-97.34-89.2-153.87s39.94-79.31,89.2-50.86S370.56,172.45,370.56,229,330.62,308.29,281.35,279.85Z"/><path class="cls-121" d="M286.67,63.12C261.08,48.35,237.84,46.36,220.56,55c16.11-4.51,39.81-2.07,61.47,10.43,53.36,30.81,96.62,105.43,96.62,166.67,0,31.88-15.45,54.74-34.22,64.13,23.59-6.6,38.86-30.07,38.86-66.45C383.29,168.54,340,93.93,286.67,63.12Z"/><path class="cls-122" d="M273.89,141.19A298.38,298.38,0,0,1,325.16,100c-11.7-13-24.74-24-38.49-32-50.5-29.16-91.44-5.81-91.44,52.14,0,29.14,10.36,61.49,27.08,90.16A293.33,293.33,0,0,1,273.89,141.19Z"/><circle class="cls-123" cx="263.32" cy="262.65" r="32.95"/><circle class="cls-124" cx="378.63" cy="236.44" r="32.95" transform="translate(90.3 577.22) rotate(-81.75)"/><circle class="cls-125" cx="317.98" cy="82.94" r="32.95"/><circle class="cls-126" cx="266.36" cy="116.21" r="75.27" transform="translate(-4.16 222.38) rotate(-45)"/></g></g></g></svg>