<svg width="261" height="102" viewBox="0 0 261 102" fill="none" xmlns="http://www.w3.org/2000/svg">
<path fill-rule="evenodd" clip-rule="evenodd" d="M58.3741 39.464L64.2179 13.964L67.532 14.7235L61.6882 40.2235L58.3741 39.464ZM99.6839 21.6471L64.0901 42.8971L62.3473 39.9778L97.941 18.7278L99.6839 21.6471ZM54.3885 40.8186L46.951 30.1936L49.7364 28.2438L57.1739 38.8688L54.3885 40.8186ZM52.197 45.2155L12.3532 35.653L13.1467 32.3469L52.9904 41.9094L52.197 45.2155ZM83.5356 52.6518L63.8794 47.8706L64.683 44.5669L84.3392 49.3481L83.5356 52.6518ZM54.5308 49.2702L43.9058 55.6452L42.1566 52.7297L52.7816 46.3547L54.5308 49.2702ZM62.5299 48.4966L72.6236 64.4341L69.7513 66.2533L59.6575 50.3158L62.5299 48.4966ZM59.0273 50.8685L51.0585 83.806L47.7539 83.0065L55.7226 50.069L59.0273 50.8685Z" fill="#509ED5"/>
<path fill-rule="evenodd" clip-rule="evenodd" d="M108.906 23.1625C114.363 23.1625 118.787 18.7385 118.787 13.2812C118.787 7.82399 114.363 3.4 108.906 3.4C103.449 3.4 99.025 7.82399 99.025 13.2812C99.025 18.7385 103.449 23.1625 108.906 23.1625ZM108.906 26.5625C116.241 26.5625 122.187 20.6163 122.187 13.2812C122.187 5.94622 116.241 0 108.906 0C101.571 0 95.625 5.94622 95.625 13.2812C95.625 20.6163 101.571 26.5625 108.906 26.5625Z" fill="#509ED5"/>
<path fill-rule="evenodd" clip-rule="evenodd" d="M91.9062 58.225C95.0163 58.225 97.5375 55.7038 97.5375 52.5938C97.5375 49.4837 95.0163 46.9625 91.9062 46.9625C88.7962 46.9625 86.275 49.4837 86.275 52.5938C86.275 55.7038 88.7962 58.225 91.9062 58.225ZM91.9062 61.625C96.8941 61.625 100.938 57.5816 100.938 52.5938C100.938 47.6059 96.8941 43.5625 91.9062 43.5625C86.9184 43.5625 82.875 47.6059 82.875 52.5938C82.875 57.5816 86.9184 61.625 91.9062 61.625Z" fill="#A3D2F1"/>
<path fill-rule="evenodd" clip-rule="evenodd" d="M67.4687 11.475C69.4052 11.475 70.975 9.9052 70.975 7.96875C70.975 6.0323 69.4052 4.4625 67.4687 4.4625C65.5323 4.4625 63.9625 6.0323 63.9625 7.96875C63.9625 9.9052 65.5323 11.475 67.4687 11.475ZM67.4687 14.875C71.283 14.875 74.375 11.783 74.375 7.96875C74.375 4.15453 71.283 1.0625 67.4687 1.0625C63.6545 1.0625 60.5625 4.15453 60.5625 7.96875C60.5625 11.783 63.6545 14.875 67.4687 14.875Z" fill="#509ED5"/>
<path fill-rule="evenodd" clip-rule="evenodd" d="M44.0937 28.475C47.7906 28.475 50.7875 25.4781 50.7875 21.7812C50.7875 18.0844 47.7906 15.0875 44.0937 15.0875C40.3969 15.0875 37.4 18.0844 37.4 21.7812C37.4 25.4781 40.3969 28.475 44.0937 28.475ZM44.0937 31.875C49.6684 31.875 54.1875 27.3559 54.1875 21.7812C54.1875 16.2066 49.6684 11.6875 44.0937 11.6875C38.5191 11.6875 34 16.2066 34 21.7812C34 27.3559 38.5191 31.875 44.0937 31.875Z" fill="#A3D2F1"/>
<path fill-rule="evenodd" clip-rule="evenodd" d="M6.90625 35.9125C8.8427 35.9125 10.4125 34.3427 10.4125 32.4062C10.4125 30.4698 8.8427 28.9 6.90625 28.9C4.9698 28.9 3.4 30.4698 3.4 32.4062C3.4 34.3427 4.9698 35.9125 6.90625 35.9125ZM6.90625 39.3125C10.7205 39.3125 13.8125 36.2205 13.8125 32.4062C13.8125 28.592 10.7205 25.5 6.90625 25.5C3.09203 25.5 0 28.592 0 32.4062C0 36.2205 3.09203 39.3125 6.90625 39.3125Z" fill="#509ED5"/>
<path fill-rule="evenodd" clip-rule="evenodd" d="M36.125 63.5375C39.5285 63.5375 42.2875 60.7785 42.2875 57.375C42.2875 53.9715 39.5285 51.2125 36.125 51.2125C32.7215 51.2125 29.9625 53.9715 29.9625 57.375C29.9625 60.7785 32.7215 63.5375 36.125 63.5375ZM36.125 66.9375C41.4062 66.9375 45.6875 62.6562 45.6875 57.375C45.6875 52.0938 41.4062 47.8125 36.125 47.8125C30.8438 47.8125 26.5625 52.0938 26.5625 57.375C26.5625 62.6562 30.8438 66.9375 36.125 66.9375Z" fill="#509ED5"/>
<path fill-rule="evenodd" clip-rule="evenodd" d="M46.75 98.6C50.1535 98.6 52.9125 95.841 52.9125 92.4375C52.9125 89.034 50.1535 86.275 46.75 86.275C43.3465 86.275 40.5875 89.034 40.5875 92.4375C40.5875 95.841 43.3465 98.6 46.75 98.6ZM46.75 102C52.0312 102 56.3125 97.7187 56.3125 92.4375C56.3125 87.1563 52.0312 82.875 46.75 82.875C41.4688 82.875 37.1875 87.1563 37.1875 92.4375C37.1875 97.7187 41.4688 102 46.75 102Z" fill="#A3D2F1"/>
<path fill-rule="evenodd" clip-rule="evenodd" d="M75.4375 75.225C77.6673 75.225 79.475 73.4173 79.475 71.1875C79.475 68.9576 77.6673 67.15 75.4375 67.15C73.2076 67.15 71.4 68.9576 71.4 71.1875C71.4 73.4173 73.2076 75.225 75.4375 75.225ZM75.4375 78.625C79.5451 78.625 82.875 75.2951 82.875 71.1875C82.875 67.0799 79.5451 63.75 75.4375 63.75C71.3299 63.75 68 67.0799 68 71.1875C68 75.2951 71.3299 78.625 75.4375 78.625Z" fill="#509ED5"/>
<path d="M64.8125 44.625C64.8125 48.1458 61.9583 51 58.4375 51C54.9167 51 52.0625 48.1458 52.0625 44.625C52.0625 41.1042 54.9167 38.25 58.4375 38.25C61.9583 38.25 64.8125 41.1042 64.8125 44.625Z" fill="#509ED5"/>
<path d="M131.148 55.7929C131.148 57.5283 130.873 59.1074 130.323 60.5303C129.774 61.9531 128.998 63.1711 127.995 64.1844C126.993 65.1976 125.791 65.9845 124.39 66.545C122.988 67.0947 121.436 67.3696 119.733 67.3696H111.067V44.2H119.733C121.436 44.2 122.988 44.4802 124.39 45.0407C125.791 45.5905 126.993 46.3774 127.995 47.4014C128.998 48.4146 129.774 49.6326 130.323 51.0555C130.873 52.4783 131.148 54.0574 131.148 55.7929ZM127.931 55.7929C127.931 54.37 127.737 53.0981 127.348 51.9771C126.96 50.8561 126.411 49.9075 125.699 49.1314C124.988 48.3553 124.126 47.7625 123.112 47.3529C122.099 46.9433 120.973 46.7385 119.733 46.7385H114.22V64.8311H119.733C120.973 64.8311 122.099 64.6263 123.112 64.2167C124.126 63.8071 124.988 63.2197 125.699 62.4543C126.411 61.6782 126.96 60.7297 127.348 59.6087C127.737 58.4876 127.931 57.2157 127.931 55.7929Z" fill="#519FD7"/>
<path d="M141.445 50.7321C142.426 50.7321 143.332 50.8992 144.162 51.2333C144.992 51.5567 145.708 52.031 146.312 52.6562C146.916 53.2706 147.384 54.0359 147.719 54.9521C148.064 55.8575 148.236 56.8923 148.236 58.0565C148.236 58.5092 148.188 58.811 148.091 58.9619C147.993 59.1128 147.81 59.1883 147.541 59.1883H136.643C136.665 60.2231 136.805 61.1231 137.064 61.8884C137.322 62.6537 137.678 63.2951 138.131 63.8125C138.583 64.3191 139.122 64.7018 139.748 64.9605C140.373 65.2084 141.073 65.3323 141.849 65.3323C142.572 65.3323 143.191 65.2515 143.709 65.0898C144.237 64.9174 144.69 64.7341 145.067 64.5401C145.444 64.3461 145.757 64.1682 146.005 64.0065C146.263 63.8341 146.484 63.7478 146.668 63.7478C146.905 63.7478 147.088 63.8394 147.217 64.0227L148.026 65.0737C147.67 65.5048 147.244 65.8821 146.749 66.2055C146.253 66.518 145.719 66.7767 145.148 66.9815C144.587 67.1863 144.005 67.3373 143.402 67.4343C142.798 67.5421 142.2 67.5959 141.607 67.5959C140.475 67.5959 139.43 67.4073 138.47 67.03C137.522 66.642 136.697 66.0815 135.996 65.3485C135.307 64.6048 134.768 63.6885 134.38 62.5999C133.991 61.5112 133.797 60.2608 133.797 58.8487C133.797 57.7062 133.97 56.639 134.315 55.6474C134.671 54.6557 135.177 53.7987 135.835 53.0765C136.492 52.3436 137.295 51.7723 138.244 51.3627C139.192 50.9423 140.26 50.7321 141.445 50.7321ZM141.51 52.8502C140.119 52.8502 139.025 53.2544 138.228 54.0628C137.43 54.8605 136.934 55.9707 136.74 57.3936H145.649C145.649 56.7253 145.557 56.1162 145.374 55.5665C145.191 55.006 144.921 54.5263 144.566 54.1275C144.21 53.7179 143.773 53.4053 143.256 53.1897C142.749 52.9634 142.167 52.8502 141.51 52.8502Z" fill="#519FD7"/>
<path d="M149.44 50.9908H151.8C152.027 50.9908 152.215 51.0501 152.366 51.1686C152.517 51.2872 152.625 51.4273 152.689 51.589L156.845 62.131C156.996 62.519 157.114 62.9071 157.201 63.2951C157.287 63.6831 157.368 64.0658 157.443 64.4431C157.529 64.0658 157.621 63.6831 157.718 63.2951C157.815 62.9071 157.939 62.519 158.09 62.131L162.294 51.589C162.358 51.4166 162.461 51.2764 162.601 51.1686C162.752 51.0501 162.935 50.9908 163.151 50.9908H165.398L158.72 67.3696H156.117L149.44 50.9908Z" fill="#519FD7"/>
<path d="M174.13 50.7321C175.111 50.7321 176.016 50.8992 176.846 51.2333C177.676 51.5567 178.393 52.031 178.997 52.6562C179.6 53.2706 180.069 54.0359 180.403 54.9521C180.748 55.8575 180.921 56.8923 180.921 58.0565C180.921 58.5092 180.872 58.811 180.775 58.9619C180.678 59.1128 180.495 59.1883 180.225 59.1883H169.328C169.349 60.2231 169.489 61.1231 169.748 61.8884C170.007 62.6537 170.362 63.2951 170.815 63.8125C171.268 64.3191 171.807 64.7018 172.432 64.9605C173.057 65.2084 173.758 65.3323 174.534 65.3323C175.256 65.3323 175.876 65.2515 176.393 65.0898C176.922 64.9174 177.374 64.7341 177.752 64.5401C178.129 64.3461 178.441 64.1682 178.689 64.0065C178.948 63.8341 179.169 63.7478 179.352 63.7478C179.589 63.7478 179.773 63.8394 179.902 64.0227L180.71 65.0737C180.355 65.5048 179.929 65.8821 179.433 66.2055C178.937 66.518 178.404 66.7767 177.832 66.9815C177.272 67.1863 176.69 67.3373 176.086 67.4343C175.483 67.5421 174.884 67.5959 174.291 67.5959C173.16 67.5959 172.114 67.4073 171.155 67.03C170.206 66.642 169.382 66.0815 168.681 65.3485C167.991 64.6048 167.452 63.6885 167.064 62.5999C166.676 61.5112 166.482 60.2608 166.482 58.8487C166.482 57.7062 166.654 56.639 166.999 55.6474C167.355 54.6557 167.862 53.7987 168.519 53.0765C169.177 52.3436 169.98 51.7723 170.928 51.3627C171.877 50.9423 172.944 50.7321 174.13 50.7321ZM174.194 52.8502C172.804 52.8502 171.71 53.2544 170.912 54.0628C170.115 54.8605 169.619 55.9707 169.425 57.3936H178.334C178.334 56.7253 178.242 56.1162 178.059 55.5665C177.876 55.006 177.606 54.5263 177.25 54.1275C176.895 53.7179 176.458 53.4053 175.941 53.1897C175.434 52.9634 174.852 52.8502 174.194 52.8502Z" fill="#519FD7"/>
<path d="M188.194 64.7341H198.218V67.3696H185.057V44.2H188.194V64.7341Z" fill="#A3D2F1"/>
<path d="M207.13 50.7321C208.111 50.7321 209.017 50.8992 209.847 51.2333C210.677 51.5567 211.393 52.031 211.997 52.6562C212.601 53.2706 213.069 54.0359 213.404 54.9521C213.749 55.8575 213.921 56.8923 213.921 58.0565C213.921 58.5092 213.873 58.811 213.776 58.9619C213.678 59.1128 213.495 59.1883 213.226 59.1883H202.328C202.35 60.2231 202.49 61.1231 202.749 61.8884C203.007 62.6537 203.363 63.2951 203.816 63.8125C204.268 64.3191 204.807 64.7018 205.433 64.9605C206.058 65.2084 206.758 65.3323 207.534 65.3323C208.257 65.3323 208.876 65.2515 209.394 65.0898C209.922 64.9174 210.375 64.7341 210.752 64.5401C211.129 64.3461 211.442 64.1682 211.69 64.0065C211.948 63.8341 212.169 63.7478 212.353 63.7478C212.59 63.7478 212.773 63.8394 212.902 64.0227L213.711 65.0736C213.355 65.5048 212.929 65.8821 212.434 66.2054C211.938 66.518 211.404 66.7767 210.833 66.9815C210.272 67.1863 209.69 67.3372 209.087 67.4343C208.483 67.5421 207.885 67.5959 207.292 67.5959C206.16 67.5959 205.115 67.4073 204.155 67.03C203.207 66.642 202.382 66.0815 201.681 65.3485C200.992 64.6048 200.453 63.6885 200.065 62.5998C199.676 61.5112 199.482 60.2608 199.482 58.8487C199.482 57.7062 199.655 56.639 200 55.6474C200.356 54.6557 200.862 53.7987 201.52 53.0765C202.177 52.3436 202.98 51.7723 203.929 51.3627C204.877 50.9423 205.945 50.7321 207.13 50.7321ZM207.195 52.8502C205.804 52.8502 204.71 53.2544 203.913 54.0628C203.115 54.8605 202.619 55.9707 202.425 57.3936H211.334C211.334 56.7253 211.242 56.1162 211.059 55.5665C210.876 55.006 210.606 54.5263 210.251 54.1275C209.895 53.7179 209.458 53.4053 208.941 53.1897C208.434 52.9634 207.852 52.8502 207.195 52.8502Z" fill="#A3D2F1"/>
<path d="M229.634 67.3696H228.357C228.077 67.3696 227.85 67.3265 227.678 67.2402C227.505 67.154 227.392 66.9708 227.338 66.6905L227.015 65.1707C226.584 65.5587 226.163 65.909 225.754 66.2216C225.344 66.5234 224.913 66.7821 224.46 66.9977C224.007 67.2025 223.522 67.3588 223.005 67.4666C222.498 67.5744 221.932 67.6283 221.307 67.6283C220.671 67.6283 220.073 67.5421 219.513 67.3696C218.963 67.1863 218.483 66.9169 218.074 66.5612C217.664 66.2054 217.335 65.7581 217.087 65.2192C216.85 64.6694 216.732 64.0227 216.732 63.2789C216.732 62.6322 216.909 62.0124 217.265 61.4195C217.621 60.8159 218.192 60.2824 218.979 59.8188C219.777 59.3553 220.817 58.9781 222.1 58.687C223.382 58.3852 224.951 58.2128 226.805 58.1697V56.8923C226.805 55.6204 226.53 54.6611 225.98 54.0143C225.441 53.3568 224.638 53.028 223.571 53.028C222.87 53.028 222.277 53.1197 221.792 53.3029C221.318 53.4754 220.903 53.6748 220.547 53.9011C220.202 54.1167 219.901 54.3161 219.642 54.4994C219.394 54.6718 219.146 54.7581 218.898 54.7581C218.704 54.7581 218.532 54.7096 218.381 54.6126C218.241 54.5048 218.127 54.3754 218.041 54.2245L217.524 53.3029C218.429 52.4298 219.405 51.7777 220.45 51.3465C221.496 50.9153 222.655 50.6998 223.927 50.6998C224.843 50.6998 225.657 50.8507 226.368 51.1525C227.079 51.4543 227.678 51.8747 228.163 52.4136C228.648 52.9526 229.014 53.6047 229.262 54.37C229.51 55.1353 229.634 55.9761 229.634 56.8923V67.3696ZM222.164 65.6072C222.671 65.6072 223.134 65.5587 223.555 65.4617C223.975 65.3539 224.369 65.2084 224.735 65.0251C225.112 64.8311 225.468 64.5994 225.802 64.3299C226.147 64.0604 226.481 63.7532 226.805 63.4083V59.9967C225.479 60.0398 224.352 60.1476 223.425 60.3201C222.498 60.4818 221.744 60.6973 221.162 60.9668C220.58 61.2363 220.154 61.5543 219.884 61.9208C219.626 62.2873 219.496 62.6969 219.496 63.1496C219.496 63.5807 219.566 63.9526 219.707 64.2652C219.847 64.5778 220.035 64.8365 220.273 65.0413C220.51 65.2353 220.79 65.3808 221.113 65.4779C221.437 65.5641 221.787 65.6072 222.164 65.6072Z" fill="#A3D2F1"/>
<path d="M233.994 67.3696V50.9908H235.644C235.956 50.9908 236.172 51.0501 236.29 51.1686C236.409 51.2872 236.49 51.492 236.533 51.7831L236.727 54.3377C237.287 53.1951 237.977 52.3058 238.796 51.6699C239.626 51.0231 240.597 50.6998 241.707 50.6998C242.159 50.6998 242.569 50.7537 242.936 50.8614C243.302 50.9585 243.642 51.0986 243.954 51.2818L243.582 53.4323C243.507 53.7017 243.34 53.8365 243.081 53.8365C242.93 53.8365 242.698 53.788 242.386 53.691C242.073 53.5832 241.637 53.5293 241.076 53.5293C240.074 53.5293 239.233 53.8203 238.554 54.4024C237.886 54.9844 237.325 55.8306 236.872 56.9408V67.3696H233.994Z" fill="#A3D2F1"/>
<path d="M247.037 67.3696V50.9908H248.75C249.16 50.9908 249.419 51.1902 249.527 51.589L249.753 53.3676C250.464 52.5807 251.257 51.9447 252.13 51.4597C253.014 50.9746 254.032 50.7321 255.186 50.7321C256.08 50.7321 256.867 50.883 257.546 51.1848C258.236 51.4759 258.807 51.8962 259.26 52.446C259.724 52.9849 260.074 53.6371 260.311 54.4024C260.548 55.1677 260.667 56.0138 260.667 56.9408V67.3696H257.789V56.9408C257.789 55.7012 257.503 54.7419 256.932 54.0628C256.371 53.373 255.509 53.028 254.345 53.028C253.493 53.028 252.696 53.2328 251.952 53.6424C251.219 54.052 250.54 54.6072 249.915 55.3078V67.3696H247.037Z" fill="#A3D2F1"/>
</svg>
